<?xml version="1.0" encoding="UTF-8"?>
<svg version="1.1" xmlns="http://www.w3.org/2000/svg" width="500" height="500">
<path d="M0 0 C8.58 0 17.16 0 26 0 C26 20.79 26 41.58 26 63 C32.93 63 39.86 63 47 63 C47 42.21 47 21.42 47 0 C55.58 0 64.16 0 73 0 C73.33 20.46 73.66 40.92 74 62 C80.93 62.33 87.86 62.66 95 63 C95 42.21 95 21.42 95 0 C103.58 0 112.16 0 121 0 C121 20.79 121 41.58 121 63 C128.59 63 136.18 63 144 63 C144 42.21 144 21.42 144 0 C152.25 0 160.5 0 169 0 C169 20.79 169 41.58 169 63 C175.6 63 182.2 63 189 63 C189 70.92 189 78.84 189 87 C182.4 87 175.8 87 169 87 C169 94.92 169 102.84 169 111 C175.6 111 182.2 111 189 111 C189 119.25 189 127.5 189 136 C182.4 136 175.8 136 169 136 C169 142.6 169 149.2 169 156 C178.9 156.495 178.9 156.495 189 157 C189 165.58 189 174.16 189 183 C182.4 183 175.8 183 169 183 C169 190.59 169 198.18 169 206 C175.6 206 182.2 206 189 206 C189 214.58 189 223.16 189 232 C182.4 232 175.8 232 169 232 C169.03480469 234.19914063 169.06960938 236.39828125 169.10546875 238.6640625 C169.31398564 255.33169115 169.24658657 271.57853504 166 288 C165.83371094 288.85770996 165.66742188 289.71541992 165.49609375 290.59912109 C155.68168456 339.57120549 127.27026844 384.40100772 87 414 C85.94039063 414.78117187 84.88078125 415.56234375 83.7890625 416.3671875 C61.12485064 432.5399214 35.8192841 443.49275785 8.75 449.8125 C7.9247583 450.00739014 7.0995166 450.20228027 6.24926758 450.40307617 C-9.50791975 453.87390988 -25.15893798 454.28129376 -41.22265625 454.1953125 C-43.30586103 454.19157191 -45.3890676 454.1887299 -47.47227478 454.18673706 C-52.89561006 454.17918281 -58.31883436 454.15960712 -63.74212646 454.1373291 C-70.28113767 454.11304866 -76.82018645 454.10405053 -83.35923004 454.09242249 C-93.23956335 454.07317616 -103.11965423 454.03479676 -113 454 C-113 469.18 -113 484.36 -113 500 C-121.58 500 -130.16 500 -139 500 C-139 484.82 -139 469.64 -139 454 C-145.93 454 -152.86 454 -160 454 C-160 469.18 -160 484.36 -160 500 C-168.58 500 -177.16 500 -186 500 C-186 484.82 -186 469.64 -186 454 C-193.26 454 -200.52 454 -208 454 C-208 469.18 -208 484.36 -208 500 C-216.58 500 -225.16 500 -234 500 C-234 484.82 -234 469.64 -234 454 C-241.59 454 -249.18 454 -257 454 C-257 469.18 -257 484.36 -257 500 C-265.25 500 -273.5 500 -282 500 C-282 484.82 -282 469.64 -282 454 C-291.57 454 -301.14 454 -311 454 C-311 445.75 -311 437.5 -311 429 C-301.43 429 -291.86 429 -282 429 C-282 421.41 -282 413.82 -282 406 C-291.57 406 -301.14 406 -311 406 C-311 397.42 -311 388.84 -311 380 C-301.43 380 -291.86 380 -282 380 C-282 373.4 -282 366.8 -282 360 C-291.57 360 -301.14 360 -311 360 C-311 351.42 -311 342.84 -311 334 C-301.43 334 -291.86 334 -282 334 C-282 326.41 -282 318.82 -282 311 C-291.57 311 -301.14 311 -311 311 C-311 302.42 -311 293.84 -311 285 C-301.43 285 -291.86 285 -282 285 C-282.04640625 282.3909375 -282.0928125 279.781875 -282.140625 277.09375 C-282.40873724 258.08281922 -282.61507649 239.57551827 -278 221 C-277.75862305 220.01725098 -277.51724609 219.03450195 -277.26855469 218.02197266 C-266.08548875 173.87347903 -240.99489912 134.15397205 -205 106 C-204.48679199 105.58911133 -203.97358398 105.17822266 -203.44482422 104.75488281 C-171.60409664 79.39466839 -129.03534084 63.0642116 -88.07397461 62.79467773 C-87.12656403 62.78477814 -86.17915344 62.77487854 -85.20303345 62.76467896 C-82.10282809 62.73334503 -79.00260746 62.70841887 -75.90234375 62.68359375 C-73.74043909 62.66299989 -71.57853824 62.64200281 -69.41664124 62.62062073 C-63.74996032 62.56565114 -58.08324458 62.51613197 -52.41650391 62.46777344 C-45.60480221 62.40849968 -38.79316358 62.34241101 -31.98151398 62.27747345 C-21.65438145 62.1797803 -11.32720688 62.09070804 -1 62 C-0.67 41.54 -0.34 21.08 0 0 Z M-127 94 C-127.77746582 94.21640137 -128.55493164 94.43280273 -129.35595703 94.65576172 C-147.45329778 99.85364455 -164.62449274 108.15460474 -180 119 C-181.02222656 119.71800781 -182.04445313 120.43601563 -183.09765625 121.17578125 C-190.57702442 126.60918032 -197.32295001 132.6326631 -204 139 C-204.83144531 139.76699219 -205.66289062 140.53398437 -206.51953125 141.32421875 C-237.29139985 170.60472053 -256.73672717 215.56717669 -258 258 C-257.94542189 267.01046485 -257.49638431 276.00471131 -257 285 C-249.41 285 -241.82 285 -234 285 C-234.04125 281.4525 -234.0825 277.905 -234.125 274.25 C-234.22952268 232.7092978 -222.3077057 193.47369847 -193.43359375 162.7421875 C-191.78819874 161.11863887 -191.78819874 161.11863887 -192 159 C-191.34 159 -190.68 159 -190 159 C-188.33333333 157.66666667 -188.33333333 157.66666667 -187 156 C-187 155.34 -187 154.68 -187 154 C-186.41863281 153.7421875 -185.83726562 153.484375 -185.23828125 153.21875 C-182.81240694 151.89785509 -181.17538134 150.4133848 -179.1875 148.5 C-153.5370454 125.42706271 -117.82269142 112.03102167 -83.44116211 111.79467773 C-82.53276581 111.78477814 -81.62436951 111.77487854 -80.68844604 111.76467896 C-77.71810414 111.73336362 -74.7477463 111.70842643 -71.77734375 111.68359375 C-69.70511993 111.66299827 -67.63290007 111.64200116 -65.5606842 111.62062073 C-60.13073956 111.56566781 -54.70075871 111.51614143 -49.27075195 111.46777344 C-43.72018241 111.41736176 -38.16966487 111.36177878 -32.61914062 111.30664062 C-21.74613827 111.19938705 -10.87309058 111.09787049 0 111 C0.02887236 107.18751574 0.04675492 103.3750593 0.0625 99.5625 C0.07087891 98.47388672 0.07925781 97.38527344 0.08789062 96.26367188 C0.09111328 95.22919922 0.09433594 94.19472656 0.09765625 93.12890625 C0.10289307 92.17056885 0.10812988 91.21223145 0.11352539 90.22485352 C0.2505313 88.02714661 0.2505313 88.02714661 -1 87 C-3.28512361 86.89487273 -5.57355322 86.86141792 -7.86108398 86.85473633 C-8.5802449 86.85137772 -9.29940582 86.8480191 -10.0403595 86.84455872 C-12.44228818 86.83499093 -14.84414712 86.83310033 -17.24609375 86.83203125 C-18.93115771 86.82881414 -20.6162214 86.82544973 -22.30128479 86.82194519 C-25.85833376 86.81593361 -29.41535841 86.81410651 -32.97241211 86.81469727 C-36.57109724 86.81477747 -40.16965224 86.80801484 -43.76831055 86.79418945 C-85.78936123 86.5290146 -85.78936123 86.5290146 -127 94 Z M26 87 C26 94.92 26 102.84 26 111 C32.93 111 39.86 111 47 111 C47 103.08 47 95.16 47 87 C40.07 87 33.14 87 26 87 Z M73 88 C72.91286169 89.70772358 72.89299993 91.41898649 72.90234375 93.12890625 C72.90556641 94.16337891 72.90878906 95.19785156 72.91210938 96.26367188 C72.92048828 97.35228516 72.92886719 98.44089844 72.9375 99.5625 C72.94201172 100.65498047 72.94652344 101.74746094 72.95117188 102.87304688 C72.9630016 105.58205432 72.98093769 108.2910338 73 111 C80.26 111 87.52 111 95 111 C95 103.08 95 95.16 95 87 C91.555625 86.979375 88.11125 86.95875 84.5625 86.9375 C82.93163452 86.92384399 82.93163452 86.92384399 81.26782227 86.90991211 C80.41760498 86.90741455 79.5673877 86.90491699 78.69140625 86.90234375 C77.81685791 86.89710693 76.94230957 86.89187012 76.04125977 86.88647461 C74.00559794 86.77215191 74.00559794 86.77215191 73 88 Z M121 87 C121 94.92 121 102.84 121 111 C128.59 111 136.18 111 144 111 C144 103.08 144 95.16 144 87 C136.41 87 128.82 87 121 87 Z M-173.3125 177.5625 C-174.55491551 179.030556 -175.78254227 180.51118121 -177 182 C-177.78632813 182.96035156 -178.57265625 183.92070312 -179.3828125 184.91015625 C-203.14520537 214.53289997 -210.2005539 247.65005807 -208 285 C-200.74 285 -193.48 285 -186 285 C-186.05220703 282.53273438 -186.05220703 282.53273438 -186.10546875 280.015625 C-186.56242355 249.34657292 -181.86795626 219.78593706 -160.75 196.1015625 C-158.80687729 194.02739639 -158.80687729 194.02739639 -158 191 C-157.34 191 -156.68 191 -156 191 C-154.33333333 189.66666667 -154.33333333 189.66666667 -153 188 C-153 187.34 -153 186.68 -153 186 C-152.43023437 185.74476563 -151.86046875 185.48953125 -151.2734375 185.2265625 C-148.74469189 183.86225645 -146.80662728 182.24390255 -144.625 180.375 C-126.8490402 165.99239522 -103.7444862 157.95541965 -80.94360352 157.79467773 C-79.62533821 157.77982834 -79.62533821 157.77982834 -78.28044128 157.76467896 C-75.39662299 157.73327527 -72.51278827 157.70839072 -69.62890625 157.68359375 C-67.62108449 157.66300594 -65.61326688 157.64200901 -63.60545349 157.62062073 C-58.3365924 157.56558867 -53.06769342 157.51609664 -47.79876709 157.46777344 C-42.41594088 157.41742016 -37.03316928 157.36180646 -31.65039062 157.30664062 C-21.10030546 157.19928999 -10.55017356 157.09828078 0 157 C0 150.4 0 143.8 0 137 C-11.57131764 136.93185325 -23.14249902 136.8769717 -34.71397305 136.84456348 C-40.0887703 136.8289985 -45.46342152 136.80793055 -50.83813477 136.77368164 C-56.03827891 136.74075767 -61.2382838 136.72307833 -66.43852425 136.71536827 C-68.40895844 136.70988341 -70.3793862 136.69917558 -72.34976006 136.68280983 C-109.7825375 136.38464958 -147.63798122 149.03525691 -173.3125 177.5625 Z M26 137 C26 143.6 26 150.2 26 157 C32.93 157 39.86 157 47 157 C47 150.4 47 143.8 47 137 C40.07 137 33.14 137 26 137 Z M73 137 C72.979375 140.114375 72.95875 143.22875 72.9375 146.4375 C72.928396 147.42032959 72.91929199 148.40315918 72.90991211 149.41577148 C72.90741455 150.18477783 72.90491699 150.95378418 72.90234375 151.74609375 C72.89710693 152.53685303 72.89187012 153.3276123 72.88647461 154.14233398 C72.79504091 156.01592689 72.79504091 156.01592689 74 157 C75.56172745 157.08685603 77.12729344 157.10702219 78.69140625 157.09765625 C79.63564453 157.09443359 80.57988281 157.09121094 81.55273438 157.08789062 C83.04256836 157.07532227 83.04256836 157.07532227 84.5625 157.0625 C85.55958984 157.05798828 86.55667969 157.05347656 87.58398438 157.04882812 C90.05601487 157.03700023 92.52801472 157.01906415 95 157 C95 150.4 95 143.8 95 137 C87.74 137 80.48 137 73 137 Z M121 137 C121 143.6 121 150.2 121 157 C128.59 157 136.18 157 144 157 C144 150.4 144 143.8 144 137 C136.41 137 128.82 137 121 137 Z M-141.078125 211.5234375 C-158.71938118 234.25627575 -161.60906842 256.87006221 -161 285 C-153.74 285 -146.48 285 -139 285 C-138.97421875 283.30875 -138.9484375 281.6175 -138.921875 279.875 C-138.43705365 257.90399886 -136.34948682 238.10504341 -120.05078125 221.765625 C-108.02378036 210.45067237 -92.72215833 205.91530413 -76.51611328 205.79467773 C-75.68618362 205.78477814 -74.85625397 205.77487854 -74.00117493 205.76467896 C-71.27424921 205.73324188 -68.54730611 205.70837732 -65.8203125 205.68359375 C-63.92316246 205.66300884 -62.02601685 205.64201197 -60.12887573 205.62062073 C-55.14770098 205.56555881 -50.16648593 205.5160798 -45.1852417 205.46777344 C-40.09741653 205.41744213 -35.00964952 205.3618169 -29.921875 205.30664062 C-19.94796462 205.19925339 -9.97400453 205.09825516 0 205 C0 197.74 0 190.48 0 183 C-11.18016063 182.90911291 -22.36007014 182.83594877 -33.54051876 182.79275131 C-38.73377809 182.77200375 -43.92676845 182.7439248 -49.11987305 182.69824219 C-54.14496512 182.65432142 -59.16980084 182.63076682 -64.19507027 182.62049103 C-66.09853709 182.61318165 -68.00199218 182.59891221 -69.90534782 182.57707977 C-97.24838498 182.27632628 -122.81966449 189.95260141 -141.078125 211.5234375 Z M26 183 C26 190.26 26 197.52 26 205 C32.93 205 39.86 205 47 205 C47 197.74 47 190.48 47 183 C40.07 183 33.14 183 26 183 Z M73 183 C73 190.26 73 197.52 73 205 C75.82411765 205.94137255 77.52918032 206.11725382 80.44921875 206.09765625 C81.5952356 206.09390991 81.5952356 206.09390991 82.7644043 206.09008789 C84.21133667 206.07643188 84.21133667 206.07643188 85.6875 206.0625 C88.760625 206.041875 91.83375 206.02125 95 206 C95 198.41 95 190.82 95 183 C87.74 183 80.48 183 73 183 Z M121 183 C121 190.59 121 198.18 121 206 C128.59 206 136.18 206 144 206 C144 198.41 144 190.82 144 183 C136.41 183 128.82 183 121 183 Z M-103.9765625 242.00390625 C-111.86187928 251.38240004 -113.62960099 261.14562944 -113.3125 273.125 C-113.30283203 274.259375 -113.29316406 275.39375 -113.28320312 276.5625 C-113.68495474 281.63728233 -113.68495474 281.63728233 -112 286 C-109.50254128 286.11634124 -107.03235757 286.16799429 -104.53369141 286.17700195 C-103.75142181 286.18357315 -102.96915222 286.19014435 -102.16317749 286.19691467 C-99.55930492 286.21671284 -96.95549048 286.22833094 -94.3515625 286.23828125 C-93.01652742 286.24439454 -93.01652742 286.24439454 -91.65452194 286.25063133 C-86.93455993 286.27152993 -82.21462724 286.28580942 -77.49462891 286.29516602 C-72.63822656 286.30617712 -67.7822892 286.34050409 -62.92605019 286.38033772 C-59.17857062 286.40661647 -55.43119929 286.41486829 -51.68363571 286.41844749 C-49.89523591 286.42329246 -48.10684026 286.43484623 -46.31853104 286.45348549 C-33.04226759 286.5831453 -21.09400247 285.85640944 -11.00390625 276.0625 C-3.5324705 268.1660835 0.15606801 260.18471833 0.09765625 249.26171875 C0.09443359 248.19501953 0.09121094 247.12832031 0.08789062 246.02929688 C0.07951172 244.92650391 0.07113281 243.82371094 0.0625 242.6875 C0.05798828 241.56537109 0.05347656 240.44324219 0.04882812 239.28710938 C0.03707313 236.5246849 0.02064077 233.76237002 0 231 C-10.64910647 230.93028607 -21.29815805 230.87708044 -31.94744682 230.84456348 C-36.89310683 230.82895176 -41.83860995 230.80779608 -46.78417969 230.77368164 C-51.56284234 230.74092729 -56.3413547 230.72311324 -61.120121 230.71536827 C-62.93725065 230.7098535 -64.7543727 230.69908491 -66.57143784 230.68280983 C-80.9145114 230.55952824 -93.31055105 231.19034128 -103.9765625 242.00390625 Z M26 231 C25.92652344 233.26423828 25.92652344 233.26423828 25.8515625 235.57421875 C25.04770328 258.22313997 23.00230958 279.55417516 5.4140625 296.08984375 C-8.34283135 306.97515296 -24.03017606 311.20060804 -41.36547852 311.11352539 C-42.1470784 311.11367142 -42.92867828 311.11381744 -43.73396301 311.1139679 C-46.28230703 311.11327883 -48.83057522 311.10553427 -51.37890625 311.09765625 C-53.15966248 311.09578849 -54.94041922 311.09436628 -56.72117615 311.09336853 C-61.38177945 311.08957157 -66.04235103 311.07976572 -70.70294189 311.06866455 C-75.46927461 311.05838943 -80.2356125 311.0538579 -85.00195312 311.04882812 C-94.33465152 311.03814062 -103.66731814 311.02056702 -113 311 C-113 318.59 -113 326.18 -113 334 C-102.04606039 334.06811065 -91.09226427 334.12300784 -80.13815975 334.15543652 C-75.05027762 334.17101029 -69.96254943 334.19209484 -64.87475586 334.22631836 C-59.95342586 334.25921032 -55.03224278 334.27691512 -50.11081123 334.28463173 C-48.24478408 334.29012221 -46.37876383 334.30084162 -44.51280022 334.31719017 C-18.73904718 334.53377082 3.56867925 328.33701714 22.73144531 310.42797852 C36.93811668 296.45776654 46.84756743 276.977814 47.28083801 256.85725403 C47.30113158 253.29934549 47.25143141 249.74474038 47.1875 246.1875 C47.17240486 244.70509193 47.15872511 243.22266876 47.14648438 241.74023438 C47.11649465 238.15946113 47.05772123 234.58085439 47 231 C40.07 231 33.14 231 26 231 Z M73 232 C72.97421875 234.00578125 72.9484375 236.0115625 72.921875 238.078125 C72.33285912 269.78648464 67.3137632 297.26081057 46 322 C45.4328125 322.72316406 44.865625 323.44632812 44.28125 324.19140625 C26.70902269 345.73279894 -1.1378938 356.08795082 -28 359 C-34.80763728 359.49005111 -41.62725877 359.48812697 -48.44921875 359.51171875 C-50.32779568 359.52862238 -52.2063617 359.54677991 -54.08491516 359.56611633 C-58.95904116 359.61300677 -63.83312295 359.64320606 -68.70739746 359.66955566 C-73.70931742 359.69967414 -78.71108559 359.74609423 -83.71289062 359.79101562 C-93.47519711 359.87635245 -103.23748991 359.94248936 -113 360 C-113 366.6 -113 373.2 -113 380 C-101.42868236 380.06814675 -89.85750098 380.1230283 -78.28602695 380.15543652 C-72.9112297 380.1710015 -67.53657848 380.19206945 -62.16186523 380.22631836 C-56.96172109 380.25924233 -51.7617162 380.27692167 -46.56147575 380.28463173 C-44.59104156 380.29011659 -42.6206138 380.30082442 -40.65023994 380.31719017 C-24.70621083 380.44418784 -9.67905933 379.12389126 5.5 373.875 C6.37599854 373.5756958 7.25199707 373.2763916 8.15454102 372.96801758 C40.83909241 361.36205367 67.83627169 336.74777507 82.8125 305.5625 C86.67864679 297.23618474 89.69198509 288.87906913 92 280 C92.31839844 278.86949219 92.63679687 277.73898437 92.96484375 276.57421875 C96.39589217 262.10689479 95.24202512 246.772496 95 232 C87.74 232 80.48 232 73 232 Z M121 232 C120.96261719 234.08957031 120.92523438 236.17914063 120.88671875 238.33203125 C120.26185673 268.60535656 120.26185673 268.60535656 117 283 C116.83516113 283.73250977 116.67032227 284.46501953 116.50048828 285.21972656 C107.22418976 324.8821241 82.2097153 359.82365371 47.67333984 381.4309082 C23.07272144 396.39074372 -4.39739562 404.99637415 -33.30517578 405.20532227 C-34.60946785 405.22017166 -34.60946785 405.22017166 -35.94010925 405.23532104 C-38.77515061 405.2665638 -41.61020865 405.29154397 -44.4453125 405.31640625 C-46.4264262 405.33700805 -48.40753583 405.3580053 -50.38864136 405.37937927 C-55.57361526 405.43426707 -60.75862662 405.48382154 -65.94366455 405.53222656 C-71.24633064 405.58268648 -76.54894312 405.63824402 -81.8515625 405.69335938 C-92.23433067 405.80053303 -102.61714502 405.90159481 -113 406 C-113 413.59 -113 421.18 -113 429 C-101.23699736 429.06826133 -89.47413011 429.1230928 -77.71097279 429.15543652 C-72.246611 429.17097378 -66.78239383 429.19198878 -61.31811523 429.22631836 C-56.02717899 429.25934409 -50.73638025 429.27694228 -45.44534874 429.28463173 C-43.44472787 429.29009886 -41.44411297 429.30076971 -39.44355202 429.31719017 C7.09485932 429.68335672 51.86090838 414.26331736 86 382 C87.39143109 380.80734478 88.78708794 379.61959687 90.1875 378.4375 C94.19658981 374.92257236 97.61111661 371.10950801 101 367 C101.43860352 366.47905762 101.87720703 365.95811523 102.32910156 365.42138672 C123.98254361 339.64727292 138.24733963 308.41485827 143 275 C143.18691406 273.73027344 143.37382812 272.46054687 143.56640625 271.15234375 C144.37312316 263.62298596 144.10401566 256.00040016 144.0625 248.4375 C144.05747543 246.84049619 144.05291421 245.24349086 144.04882812 243.64648438 C144.03875487 239.76425371 144.01916629 235.88223858 144 232 C136.41 232 128.82 232 121 232 Z M-257 311 C-257 318.59 -257 326.18 -257 334 C-249.41 334 -241.82 334 -234 334 C-234 326.41 -234 318.82 -234 311 C-241.59 311 -249.18 311 -257 311 Z M-208 311 C-208 318.59 -208 326.18 -208 334 C-200.74 334 -193.48 334 -186 334 C-186 326.41 -186 318.82 -186 311 C-193.26 311 -200.52 311 -208 311 Z M-160 311 C-160 318.59 -160 326.18 -160 334 C-153.07 334 -146.14 334 -139 334 C-139 326.41 -139 318.82 -139 311 C-145.93 311 -152.86 311 -160 311 Z M-257 360 C-257 366.6 -257 373.2 -257 380 C-249.41 380 -241.82 380 -234 380 C-234 373.4 -234 366.8 -234 360 C-241.59 360 -249.18 360 -257 360 Z M-208 360 C-208 366.6 -208 373.2 -208 380 C-200.74 380 -193.48 380 -186 380 C-186 373.4 -186 366.8 -186 360 C-193.26 360 -200.52 360 -208 360 Z M-160 360 C-160 366.6 -160 373.2 -160 380 C-153.07 380 -146.14 380 -139 380 C-139 373.4 -139 366.8 -139 360 C-145.93 360 -152.86 360 -160 360 Z M-257 406 C-257 413.59 -257 421.18 -257 429 C-249.41 429 -241.82 429 -234 429 C-234 421.41 -234 413.82 -234 406 C-241.59 406 -249.18 406 -257 406 Z M-208 406 C-208 413.59 -208 421.18 -208 429 C-200.74 429 -193.48 429 -186 429 C-186 421.41 -186 413.82 -186 406 C-193.26 406 -200.52 406 -208 406 Z M-160 406 C-160 413.59 -160 421.18 -160 429 C-153.07 429 -146.14 429 -139 429 C-139 421.41 -139 413.82 -139 406 C-145.93 406 -152.86 406 -160 406 Z " fill="#D14A25" transform="translate(311,0)"/>
<path d="M0 0 C8.58 0 17.16 0 26 0 C26.02327222 20.18614223 26.04105718 40.3722806 26.05181217 60.55843353 C26.05694138 69.93381714 26.06391873 79.3091922 26.07543945 88.68457031 C26.0854905 96.86793668 26.09187789 105.05129684 26.09408849 113.23466921 C26.09537814 117.55696157 26.09835068 121.87923622 26.10573006 126.20152283 C26.13634124 144.8284963 26.01361051 163.39341239 25 182 C25.66 182.33 26.32 182.66 27 183 C26.67 190.26 26.34 197.52 26 205 C32.86612807 204.96041531 32.86612807 204.96041531 39.73217773 204.90991211 C41.00750366 204.90616577 41.00750366 204.90616577 42.30859375 204.90234375 C43.18314209 204.89710693 44.05769043 204.89187012 44.95874023 204.88647461 C47 205 47 205 48 206 C48.08748207 207.92667507 48.10697334 209.85651861 48.09765625 211.78515625 C48.09443359 212.95498047 48.09121094 214.12480469 48.08789062 215.33007812 C48.07951172 216.56177734 48.07113281 217.79347656 48.0625 219.0625 C48.05798828 220.29806641 48.05347656 221.53363281 48.04882812 222.80664062 C48.03699618 225.87111413 48.01906008 228.93556293 48 232 C40.74 231.67 33.48 231.34 26 231 C26.061875 236.2903125 26.061875 236.2903125 26.125 241.6875 C26.17773116 262.02747521 22.17722881 279.25892556 7.9375 294.6875 C-7.57913795 309.3874728 -26.74473688 312.16476411 -47.31640625 312.1328125 C-48.70010902 312.13348832 -50.08381167 312.13446065 -51.46751404 312.13571167 C-54.35962053 312.137179 -57.25169597 312.1350676 -60.14379883 312.13037109 C-63.80206348 312.12471206 -67.46025411 312.12793458 -71.11851597 312.13394356 C-73.97660347 312.13760771 -76.83467429 312.13638354 -79.69276237 312.13381577 C-81.68193994 312.13284753 -83.67111823 312.13582302 -85.66029358 312.13894653 C-94.81907601 312.11587033 -103.86658192 311.63726672 -113 311 C-113 318.92 -113 326.84 -113 335 C-117.14587582 335.0268245 -121.29158038 335.04675315 -125.4375 335.0625 C-126.62150391 335.07087891 -127.80550781 335.07925781 -129.02539062 335.08789062 C-130.15009766 335.09111328 -131.27480469 335.09433594 -132.43359375 335.09765625 C-133.99678345 335.10551147 -133.99678345 335.10551147 -135.59155273 335.11352539 C-138 335 -138 335 -139 334 C-139.08713831 332.29227642 -139.10700007 330.58101351 -139.09765625 328.87109375 C-139.09443359 327.83662109 -139.09121094 326.80214844 -139.08789062 325.73632812 C-139.07951172 324.64771484 -139.07113281 323.55910156 -139.0625 322.4375 C-139.05798828 321.34501953 -139.05347656 320.25253906 -139.04882812 319.12695312 C-139.03699826 316.41791505 -139.02051543 313.70898401 -139 311 C-139.76815536 311.01474869 -140.53631073 311.02949738 -141.32774353 311.04469299 C-207.30923517 312.29604572 -207.30923517 312.29604572 -240.29052734 311.40869141 C-256.04966714 310.99053872 -271.79805436 310.91194813 -287.5625 310.9375 C-288.74965607 310.9393631 -289.93681213 310.9412262 -291.15994263 310.94314575 C-297.77334657 310.9551074 -304.3866105 310.97644618 -311 311 C-311 302.42 -311 293.84 -311 285 C-301.43 285 -291.86 285 -282 285 C-282.04640625 282.3909375 -282.0928125 279.781875 -282.140625 277.09375 C-282.40873724 258.08281922 -282.61507649 239.57551827 -278 221 C-277.75862305 220.01725098 -277.51724609 219.03450195 -277.26855469 218.02197266 C-266.08548875 173.87347903 -240.99489912 134.15397205 -205 106 C-204.48679199 105.58911133 -203.97358398 105.17822266 -203.44482422 104.75488281 C-171.60409664 79.39466839 -129.03534084 63.0642116 -88.07397461 62.79467773 C-87.12656403 62.78477814 -86.17915344 62.77487854 -85.20303345 62.76467896 C-82.10282809 62.73334503 -79.00260746 62.70841887 -75.90234375 62.68359375 C-73.74043909 62.66299989 -71.57853824 62.64200281 -69.41664124 62.62062073 C-63.74996032 62.56565114 -58.08324458 62.51613197 -52.41650391 62.46777344 C-45.60480221 62.40849968 -38.79316358 62.34241101 -31.98151398 62.27747345 C-21.65438145 62.1797803 -11.32720688 62.09070804 -1 62 C-0.67 41.54 -0.34 21.08 0 0 Z M-127 94 C-127.77746582 94.21640137 -128.55493164 94.43280273 -129.35595703 94.65576172 C-147.45329778 99.85364455 -164.62449274 108.15460474 -180 119 C-181.02222656 119.71800781 -182.04445313 120.43601563 -183.09765625 121.17578125 C-190.57702442 126.60918032 -197.32295001 132.6326631 -204 139 C-204.83144531 139.76699219 -205.66289062 140.53398437 -206.51953125 141.32421875 C-237.29139985 170.60472053 -256.73672717 215.56717669 -258 258 C-257.94542189 267.01046485 -257.49638431 276.00471131 -257 285 C-249.41 285 -241.82 285 -234 285 C-234.04125 281.4525 -234.0825 277.905 -234.125 274.25 C-234.22952268 232.7092978 -222.3077057 193.47369847 -193.43359375 162.7421875 C-191.78819874 161.11863887 -191.78819874 161.11863887 -192 159 C-191.34 159 -190.68 159 -190 159 C-188.33333333 157.66666667 -188.33333333 157.66666667 -187 156 C-187 155.34 -187 154.68 -187 154 C-186.41863281 153.7421875 -185.83726562 153.484375 -185.23828125 153.21875 C-182.81240694 151.89785509 -181.17538134 150.4133848 -179.1875 148.5 C-153.5370454 125.42706271 -117.82269142 112.03102167 -83.44116211 111.79467773 C-82.53276581 111.78477814 -81.62436951 111.77487854 -80.68844604 111.76467896 C-77.71810414 111.73336362 -74.7477463 111.70842643 -71.77734375 111.68359375 C-69.70511993 111.66299827 -67.63290007 111.64200116 -65.5606842 111.62062073 C-60.13073956 111.56566781 -54.70075871 111.51614143 -49.27075195 111.46777344 C-43.72018241 111.41736176 -38.16966487 111.36177878 -32.61914062 111.30664062 C-21.74613827 111.19938705 -10.87309058 111.09787049 0 111 C0.02887236 107.18751574 0.04675492 103.3750593 0.0625 99.5625 C0.07087891 98.47388672 0.07925781 97.38527344 0.08789062 96.26367188 C0.09111328 95.22919922 0.09433594 94.19472656 0.09765625 93.12890625 C0.10289307 92.17056885 0.10812988 91.21223145 0.11352539 90.22485352 C0.2505313 88.02714661 0.2505313 88.02714661 -1 87 C-3.28512361 86.89487273 -5.57355322 86.86141792 -7.86108398 86.85473633 C-8.5802449 86.85137772 -9.29940582 86.8480191 -10.0403595 86.84455872 C-12.44228818 86.83499093 -14.84414712 86.83310033 -17.24609375 86.83203125 C-18.93115771 86.82881414 -20.6162214 86.82544973 -22.30128479 86.82194519 C-25.85833376 86.81593361 -29.41535841 86.81410651 -32.97241211 86.81469727 C-36.57109724 86.81477747 -40.16965224 86.80801484 -43.76831055 86.79418945 C-85.78936123 86.5290146 -85.78936123 86.5290146 -127 94 Z M-173.3125 177.5625 C-174.55491551 179.030556 -175.78254227 180.51118121 -177 182 C-177.78632813 182.96035156 -178.57265625 183.92070312 -179.3828125 184.91015625 C-203.14520537 214.53289997 -210.2005539 247.65005807 -208 285 C-200.74 285 -193.48 285 -186 285 C-186.05220703 282.53273438 -186.05220703 282.53273438 -186.10546875 280.015625 C-186.56242355 249.34657292 -181.86795626 219.78593706 -160.75 196.1015625 C-158.80687729 194.02739639 -158.80687729 194.02739639 -158 191 C-157.34 191 -156.68 191 -156 191 C-154.33333333 189.66666667 -154.33333333 189.66666667 -153 188 C-153 187.34 -153 186.68 -153 186 C-152.43023437 185.74476563 -151.86046875 185.48953125 -151.2734375 185.2265625 C-148.74469189 183.86225645 -146.80662728 182.24390255 -144.625 180.375 C-126.8490402 165.99239522 -103.7444862 157.95541965 -80.94360352 157.79467773 C-79.62533821 157.77982834 -79.62533821 157.77982834 -78.28044128 157.76467896 C-75.39662299 157.73327527 -72.51278827 157.70839072 -69.62890625 157.68359375 C-67.62108449 157.66300594 -65.61326688 157.64200901 -63.60545349 157.62062073 C-58.3365924 157.56558867 -53.06769342 157.51609664 -47.79876709 157.46777344 C-42.41594088 157.41742016 -37.03316928 157.36180646 -31.65039062 157.30664062 C-21.10030546 157.19928999 -10.55017356 157.09828078 0 157 C0 150.4 0 143.8 0 137 C-11.57131764 136.93185325 -23.14249902 136.8769717 -34.71397305 136.84456348 C-40.0887703 136.8289985 -45.46342152 136.80793055 -50.83813477 136.77368164 C-56.03827891 136.74075767 -61.2382838 136.72307833 -66.43852425 136.71536827 C-68.40895844 136.70988341 -70.3793862 136.69917558 -72.34976006 136.68280983 C-109.7825375 136.38464958 -147.63798122 149.03525691 -173.3125 177.5625 Z M-141.078125 211.5234375 C-158.71938118 234.25627575 -161.60906842 256.87006221 -161 285 C-153.74 285 -146.48 285 -139 285 C-138.97421875 283.30875 -138.9484375 281.6175 -138.921875 279.875 C-138.43705365 257.90399886 -136.34948682 238.10504341 -120.05078125 221.765625 C-108.02378036 210.45067237 -92.72215833 205.91530413 -76.51611328 205.79467773 C-75.68618362 205.78477814 -74.85625397 205.77487854 -74.00117493 205.76467896 C-71.27424921 205.73324188 -68.54730611 205.70837732 -65.8203125 205.68359375 C-63.92316246 205.66300884 -62.02601685 205.64201197 -60.12887573 205.62062073 C-55.14770098 205.56555881 -50.16648593 205.5160798 -45.1852417 205.46777344 C-40.09741653 205.41744213 -35.00964952 205.3618169 -29.921875 205.30664062 C-19.94796462 205.19925339 -9.97400453 205.09825516 0 205 C0 197.74 0 190.48 0 183 C-11.18016063 182.90911291 -22.36007014 182.83594877 -33.54051876 182.79275131 C-38.73377809 182.77200375 -43.92676845 182.7439248 -49.11987305 182.69824219 C-54.14496512 182.65432142 -59.16980084 182.63076682 -64.19507027 182.62049103 C-66.09853709 182.61318165 -68.00199218 182.59891221 -69.90534782 182.57707977 C-97.24838498 182.27632628 -122.81966449 189.95260141 -141.078125 211.5234375 Z M-103.9765625 242.00390625 C-111.86187928 251.38240004 -113.62960099 261.14562944 -113.3125 273.125 C-113.30283203 274.259375 -113.29316406 275.39375 -113.28320312 276.5625 C-113.68495474 281.63728233 -113.68495474 281.63728233 -112 286 C-109.50254128 286.11634124 -107.03235757 286.16799429 -104.53369141 286.17700195 C-103.75142181 286.18357315 -102.96915222 286.19014435 -102.16317749 286.19691467 C-99.55930492 286.21671284 -96.95549048 286.22833094 -94.3515625 286.23828125 C-93.01652742 286.24439454 -93.01652742 286.24439454 -91.65452194 286.25063133 C-86.93455993 286.27152993 -82.21462724 286.28580942 -77.49462891 286.29516602 C-72.63822656 286.30617712 -67.7822892 286.34050409 -62.92605019 286.38033772 C-59.17857062 286.40661647 -55.43119929 286.41486829 -51.68363571 286.41844749 C-49.89523591 286.42329246 -48.10684026 286.43484623 -46.31853104 286.45348549 C-33.04226759 286.5831453 -21.09400247 285.85640944 -11.00390625 276.0625 C-3.5324705 268.1660835 0.15606801 260.18471833 0.09765625 249.26171875 C0.09443359 248.19501953 0.09121094 247.12832031 0.08789062 246.02929688 C0.07951172 244.92650391 0.07113281 243.82371094 0.0625 242.6875 C0.05798828 241.56537109 0.05347656 240.44324219 0.04882812 239.28710938 C0.03707313 236.5246849 0.02064077 233.76237002 0 231 C-10.64910647 230.93028607 -21.29815805 230.87708044 -31.94744682 230.84456348 C-36.89310683 230.82895176 -41.83860995 230.80779608 -46.78417969 230.77368164 C-51.56284234 230.74092729 -56.3413547 230.72311324 -61.120121 230.71536827 C-62.93725065 230.7098535 -64.7543727 230.69908491 -66.57143784 230.68280983 C-80.9145114 230.55952824 -93.31055105 231.19034128 -103.9765625 242.00390625 Z " fill="#FDAF03" transform="translate(311,0)"/>
<path d="M0 0 C8.25 0 16.5 0 25 0 C25 20.79 25 41.58 25 63 C31.6 63 38.2 63 45 63 C45 70.92 45 78.84 45 87 C38.4 87 31.8 87 25 87 C25 94.92 25 102.84 25 111 C31.6 111 38.2 111 45 111 C45 119.25 45 127.5 45 136 C38.4 136 31.8 136 25 136 C25 142.6 25 149.2 25 156 C34.9 156.495 34.9 156.495 45 157 C45 165.58 45 174.16 45 183 C38.4 183 31.8 183 25 183 C25 190.59 25 198.18 25 206 C31.6 206 38.2 206 45 206 C45 214.58 45 223.16 45 232 C38.4 232 31.8 232 25 232 C25.03480469 234.19914063 25.06960938 236.39828125 25.10546875 238.6640625 C25.31398564 255.33169115 25.24658657 271.57853504 22 288 C21.83371094 288.85770996 21.66742188 289.71541992 21.49609375 290.59912109 C11.68168456 339.57120549 -16.72973156 384.40100772 -57 414 C-58.05960937 414.78117187 -59.11921875 415.56234375 -60.2109375 416.3671875 C-82.87514936 432.5399214 -108.1807159 443.49275785 -135.25 449.8125 C-136.0752417 450.00739014 -136.9004834 450.20228027 -137.75073242 450.40307617 C-153.50791975 453.87390988 -169.15893798 454.28129376 -185.22265625 454.1953125 C-187.30586103 454.19157191 -189.3890676 454.1887299 -191.47227478 454.18673706 C-196.89561006 454.17918281 -202.31883436 454.15960712 -207.74212646 454.1373291 C-214.28113767 454.11304866 -220.82018645 454.10405053 -227.35923004 454.09242249 C-237.23956335 454.07317616 -247.11965423 454.03479676 -257 454 C-257 469.18 -257 484.36 -257 500 C-265.58 500 -274.16 500 -283 500 C-283 484.82 -283 469.64 -283 454 C-289.93 454 -296.86 454 -304 454 C-304 469.18 -304 484.36 -304 500 C-312.58 500 -321.16 500 -330 500 C-330 484.82 -330 469.64 -330 454 C-337.26 454 -344.52 454 -352 454 C-352 469.18 -352 484.36 -352 500 C-360.58 500 -369.16 500 -378 500 C-378 484.82 -378 469.64 -378 454 C-385.59 454 -393.18 454 -401 454 C-401 469.18 -401 484.36 -401 500 C-409.25 500 -417.5 500 -426 500 C-426 484.82 -426 469.64 -426 454 C-435.57 454 -445.14 454 -455 454 C-455 445.75 -455 437.5 -455 429 C-445.43 429 -435.86 429 -426 429 C-426 421.41 -426 413.82 -426 406 C-420.6478125 405.9071875 -420.6478125 405.9071875 -415.1875 405.8125 C-414.06625732 405.78518799 -412.94501465 405.75787598 -411.78979492 405.72973633 C-410.46105347 405.71849731 -410.46105347 405.71849731 -409.10546875 405.70703125 C-408.19949951 405.6913208 -407.29353027 405.67561035 -406.36010742 405.65942383 C-403.46110513 406.07776542 -402.77291267 406.7101942 -401 409 C-400.65942383 411.17651367 -400.65942383 411.17651367 -400.70703125 413.66796875 C-400.71669922 414.56064453 -400.72636719 415.45332031 -400.73632812 416.37304688 C-400.76146484 417.30181641 -400.78660156 418.23058594 -400.8125 419.1875 C-400.83280273 420.59805664 -400.83280273 420.59805664 -400.85351562 422.03710938 C-400.88886904 424.35865038 -400.93821326 426.67903653 -401 429 C-303.34796473 429.18693301 -303.34796473 429.18693301 -205.69775009 428.71085739 C-202.8375428 428.68770273 -199.97735097 428.66993676 -197.11709595 428.65383911 C-144.9442431 428.34587745 -97.17616334 417.95445275 -58 381 C-56.77685569 379.97195847 -55.54815717 378.9504673 -54.3125 377.9375 C-50.44934963 374.62878325 -47.23731159 370.91403775 -44 367 C-43.55994629 366.47760742 -43.11989258 365.95521484 -42.66650391 365.41699219 C-15.16614331 332.68153451 -1.59923832 293.13731512 -0.44360352 250.62744141 C-0.42259366 249.88822362 -0.40158381 249.14900584 -0.37993729 248.38738751 C0.07883197 232.01551459 0.13255538 215.65003087 0.10139394 199.27288771 C0.09497088 195.2998979 0.09454213 191.32690655 0.09336853 187.35391235 C0.09030929 179.89289301 0.08217212 172.43188903 0.07201904 164.97087634 C0.06068573 156.45030051 0.05530493 147.92972379 0.05032361 139.40914226 C0.03998227 121.93941916 0.02228138 104.46971182 0 87 C-7.59 87 -15.18 87 -23 87 C-23 79.08 -23 71.16 -23 63 C-15.41 63 -7.82 63 0 63 C0 42.21 0 21.42 0 0 Z " fill="#3D7D70" transform="translate(455,0)"/>
<path d="M0 0 C8.58 0 17.16 0 26 0 C26 36.63 26 73.26 26 111 C33.92 110.67 41.84 110.34 50 110 C50 118.91 50 127.82 50 137 C42.08 137 34.16 137 26 137 C26 143.6 26 150.2 26 157 C33.92 156.67 41.84 156.34 50 156 C50 164.91 50 173.82 50 183 C42.08 183 34.16 183 26 183 C26 190.59 26 198.18 26 206 C33.92 206 41.84 206 50 206 C50 214.58 50 223.16 50 232 C42.08 232 34.16 232 26 232 C26.03480469 234.08957031 26.06960938 236.17914063 26.10546875 238.33203125 C26.30460635 253.42578755 26.46283245 268.2147961 23 283 C22.83371094 283.73250977 22.66742188 284.46501953 22.49609375 285.21972656 C14.91006083 317.68513783 -3.75439848 349.09004274 -30 370 C-30.86882812 370.69480469 -31.73765625 371.38960938 -32.6328125 372.10546875 C-60.02104427 393.32221896 -93.42295227 406.27102514 -128.30517578 406.11352539 C-129.17470383 406.11367142 -130.04423187 406.11381744 -130.94010925 406.1139679 C-133.77520361 406.11327882 -136.61022982 406.10553418 -139.4453125 406.09765625 C-141.42642175 406.09578849 -143.40753147 406.09436628 -145.38864136 406.09336853 C-150.57366232 406.08957153 -155.75865476 406.07976564 -160.94366455 406.06866455 C-166.24629328 406.05838952 -171.54892666 406.05385792 -176.8515625 406.04882812 C-187.23438948 406.03814056 -197.61718789 406.02056692 -208 406 C-208 413.92 -208 421.84 -208 430 C-216.58 430 -225.16 430 -234 430 C-234 422.08 -234 414.16 -234 406 C-240.93 406 -247.86 406 -255 406 C-254.98839844 407.64871094 -254.97679687 409.29742187 -254.96484375 410.99609375 C-254.95546762 413.14322804 -254.94636723 415.29036355 -254.9375 417.4375 C-254.92912109 418.52611328 -254.92074219 419.61472656 -254.91210938 420.73632812 C-254.90888672 421.77080078 -254.90566406 422.80527344 -254.90234375 423.87109375 C-254.89710693 424.82943115 -254.89187012 425.78776855 -254.88647461 426.77514648 C-255 429 -255 429 -256 430 C-257.92667507 430.08748207 -259.85651861 430.10697334 -261.78515625 430.09765625 C-262.95498047 430.09443359 -264.12480469 430.09121094 -265.33007812 430.08789062 C-266.56177734 430.07951172 -267.79347656 430.07113281 -269.0625 430.0625 C-270.91584961 430.05573242 -270.91584961 430.05573242 -272.80664062 430.04882812 C-275.87111413 430.03699618 -278.93556293 430.01906008 -282 430 C-281.67 422.08 -281.34 414.16 -281 406 C-288.26 406 -295.52 406 -303 406 C-303 413.92 -303 421.84 -303 430 C-311.91 430 -320.82 430 -330 430 C-329.67 422.08 -329.34 414.16 -329 406 C-336.59 406 -344.18 406 -352 406 C-352.33 406.99 -352.66 407.98 -353 409 C-353.66 408.34 -354.32 407.68 -355 407 C-357.26267725 406.66914227 -357.26267725 406.66914227 -359.90869141 406.68115234 C-360.92959869 406.66128265 -361.95050598 406.64141296 -363.00234985 406.62094116 C-364.10759003 406.60938995 -365.2128302 406.59783875 -366.3515625 406.5859375 C-367.4807309 406.56657135 -368.60989929 406.5472052 -369.77328491 406.5272522 C-373.39044572 406.46732931 -377.00763813 406.42101998 -380.625 406.375 C-383.07293078 406.33683195 -385.52084796 406.29778092 -387.96875 406.2578125 C-393.97909712 406.15995067 -399.98929414 406.08048161 -406 406 C-406 397.42 -406 388.84 -406 380 C-380.59 380 -355.18 380 -329 380 C-329 373.4 -329 366.8 -329 360 C-320.42 360 -311.84 360 -303 360 C-303 366.93 -303 373.86 -303 381 C-279.04205054 380.80776639 -255.08428601 380.6003509 -231.12664127 380.37313366 C-220.00122732 380.26799575 -208.87581361 380.16810302 -197.75024414 380.08081055 C-188.04659223 380.00466101 -178.34308997 379.91841289 -168.63963407 379.82033139 C-163.50773344 379.76880359 -158.37589795 379.72213391 -153.24385262 379.68758202 C-148.40022516 379.65481171 -143.55690859 379.60840411 -138.71349907 379.55212593 C-136.94848348 379.53391388 -135.18341086 379.52042377 -133.4183197 379.51236725 C-118.34229863 379.4388735 -103.83683678 377.83265222 -89.5 372.875 C-88.62400146 372.5756958 -87.74800293 372.2763916 -86.84545898 371.96801758 C-54.07417827 360.33125694 -27.74094838 335.88544246 -12.75 304.625 C-9.05192451 296.63008722 -6.22325268 288.51703543 -4 280 C-3.69191406 278.86691406 -3.38382812 277.73382813 -3.06640625 276.56640625 C-1.08837085 267.92551476 -0.68430017 259.36358594 -0.42578125 250.53125 C-0.40534822 249.86072098 -0.3849152 249.19019196 -0.36386299 248.49934387 C0.25646346 227.5944198 0.11248289 206.67595664 0.06866455 185.76434326 C0.058242 180.24524328 0.05382735 174.72613834 0.04882812 169.20703125 C0.0382579 158.47133957 0.02074373 147.73567684 0 137 C-7.26 137 -14.52 137 -22 137 C-22 128.42 -22 119.84 -22 111 C-14.74 111 -7.48 111 0 111 C0 74.37 0 37.74 0 0 Z " fill="#982801" transform="translate(406,0)"/>
<path d="M0 0 C0.95716415 -0.00014603 1.91432831 -0.00029205 2.90049744 -0.0004425 C6.03321681 0.00024868 9.16587513 0.00800355 12.29858398 0.01586914 C14.48290474 0.01773615 16.66722592 0.01915872 18.85154724 0.02015686 C24.57745537 0.02395978 30.3033378 0.03377092 36.02923584 0.04486084 C41.88138481 0.05512295 47.73353797 0.05966474 53.58569336 0.06469727 C65.05120121 0.07539532 76.51668331 0.09297394 87.98217773 0.11352539 C87.98217773 8.36352539 87.98217773 16.61352539 87.98217773 25.11352539 C84.59669678 25.09781494 84.59669678 25.09781494 81.14282227 25.08178711 C73.57134508 25.04821011 65.99986402 25.02638478 58.42833138 25.00990105 C53.85086154 24.99959249 49.27346982 24.98567938 44.69604492 24.96264648 C2.43397437 24.63000253 2.43397437 24.63000253 -39.01782227 32.11352539 C-39.79528809 32.32992676 -40.57275391 32.54632813 -41.3737793 32.76928711 C-59.47112005 37.96716994 -76.64231501 46.26813013 -92.01782227 57.11352539 C-93.04004883 57.8315332 -94.06227539 58.54954102 -95.11547852 59.28930664 C-102.59410513 64.72216701 -109.33780937 70.75071981 -116.01782227 77.11352539 C-116.77579102 77.80704102 -117.53375977 78.50055664 -118.31469727 79.21508789 C-149.18330194 108.39380544 -167.06424619 153.06822706 -169.01782227 195.11352539 C-169.21821832 204.11739624 -169.10926095 213.106815 -169.01782227 222.11352539 C-177.26782227 222.11352539 -185.51782227 222.11352539 -194.01782227 222.11352539 C-194.81288251 177.41347185 -194.81288251 177.41347185 -190.01782227 158.11352539 C-189.77644531 157.13077637 -189.53506836 156.14802734 -189.28637695 155.13549805 C-178.10331102 110.98700442 -153.01272138 71.26749744 -117.01782227 43.11352539 C-116.50461426 42.70263672 -115.99140625 42.29174805 -115.46264648 41.8684082 C-83.77018034 16.6262797 -40.86957012 -0.16621596 0 0 Z " fill="#3C7D70" transform="translate(223.017822265625,62.886474609375)"/>
<path d="M0 0 C0.9083963 -0.00014603 1.8167926 -0.00029205 2.75271606 -0.0004425 C5.72310871 0.00024817 8.69343682 0.00800059 11.66381836 0.01586914 C13.73603786 0.01773633 15.8082578 0.01915881 17.88047791 0.02015686 C23.31046792 0.02395836 28.7404308 0.03376824 34.17041016 0.04486084 C39.72094353 0.05512605 45.27148133 0.05966539 50.82202148 0.06469727 C61.69508214 0.0753928 72.56811562 0.09297023 83.44116211 0.11352539 C83.44116211 8.69352539 83.44116211 17.27352539 83.44116211 26.11352539 C80.77352783 26.12810791 78.10589355 26.14269043 75.35742188 26.15771484 C66.48056512 26.20836174 57.60387828 26.27500709 48.72718906 26.3492403 C43.35248414 26.39370751 37.97785092 26.43301379 32.60302734 26.45996094 C27.40274597 26.48623231 22.20274411 26.52679739 17.00263786 26.57671165 C15.03226167 26.59322098 13.06183732 26.60483328 11.09140205 26.6111393 C-23.0784228 26.73141008 -52.89259174 36.49017965 -79.55883789 58.11352539 C-80.45860352 59.02875977 -81.35836914 59.94399414 -82.28540039 60.88696289 C-84.55883789 63.11352539 -84.55883789 63.11352539 -86.55883789 63.11352539 C-86.79602539 63.67555664 -87.03321289 64.23758789 -87.27758789 64.81665039 C-88.84658498 67.62936468 -90.80232744 69.56416981 -93.05883789 71.86352539 C-118.65578474 99.14509762 -125.45893696 135.96942886 -124.49291992 172.03833008 C-124.55883789 174.11352539 -124.55883789 174.11352539 -125.55883789 175.11352539 C-127.412534 175.20090184 -129.2695133 175.22050692 -131.12524414 175.21118164 C-132.24995117 175.20795898 -133.3746582 175.20473633 -134.53344727 175.20141602 C-135.71745117 175.19303711 -136.90145508 175.1846582 -138.12133789 175.17602539 C-139.30920898 175.17151367 -140.49708008 175.16700195 -141.72094727 175.16235352 C-144.66696015 175.15052214 -147.6128747 175.13403826 -150.55883789 175.11352539 C-153.21476249 132.59773629 -144.89103428 92.87402581 -117.55883789 59.11352539 C-116.7271707 58.05566843 -115.89646187 56.9970574 -115.06665039 55.93774414 C-110.50939718 50.20841782 -110.50939718 50.20841782 -108.55883789 48.11352539 C-107.89883789 48.11352539 -107.23883789 48.11352539 -106.55883789 48.11352539 C-106.22883789 47.12352539 -105.89883789 46.13352539 -105.55883789 45.11352539 C-104.89883789 45.11352539 -104.23883789 45.11352539 -103.55883789 45.11352539 C-103.55883789 44.45352539 -103.55883789 43.79352539 -103.55883789 43.11352539 C-100.57609558 40.33628698 -97.34363119 37.86419234 -94.13647461 35.35131836 C-92.65597534 34.18973815 -91.1870479 33.01345171 -89.71899414 31.83618164 C-64.48001075 12.13661847 -32.1436692 -0.13802784 0 0 Z " fill="#972802" transform="translate(227.558837890625,110.886474609375)"/>
<path d="M0 0 C0.87884354 -0.00014603 1.75768707 -0.00029205 2.66316223 -0.0004425 C5.54703299 0.00025012 8.43083789 0.00801191 11.31469727 0.01586914 C13.32251449 0.01773563 15.33033218 0.01915844 17.33815002 0.02015686 C22.60705842 0.02396384 27.87593898 0.03377851 33.14483643 0.04486084 C38.52762475 0.05511416 43.9104176 0.05966287 49.29321289 0.06469727 C59.84335726 0.07540248 70.39347371 0.09298448 80.94360352 0.11352539 C80.94360352 8.69352539 80.94360352 17.27352539 80.94360352 26.11352539 C77.07847046 26.12754395 77.07847046 26.12754395 73.13525391 26.1418457 C64.55772276 26.17583131 55.98042675 26.23149777 47.40308475 26.29742813 C42.20995506 26.33669592 37.01698968 26.36898482 31.82373047 26.38452148 C26.79844618 26.3998258 21.77361431 26.43451037 16.74853325 26.48183441 C14.84514773 26.49650772 12.94169758 26.50455819 11.03825569 26.50540924 C-11.51643205 26.52560876 -30.96021079 31.06384788 -49.05639648 45.11352539 C-49.79889648 45.86504883 -50.54139648 46.61657227 -51.30639648 47.39086914 C-53.05639648 49.11352539 -53.05639648 49.11352539 -55.05639648 49.11352539 C-55.38639648 50.10352539 -55.71639648 51.09352539 -56.05639648 52.11352539 C-56.71639648 52.11352539 -57.37639648 52.11352539 -58.05639648 52.11352539 C-58.3206543 52.68329102 -58.58491211 53.25305664 -58.85717773 53.84008789 C-60.13015102 56.2533467 -61.6133215 58.30198776 -63.24389648 60.48852539 C-78.22154476 81.80047075 -79.22933266 103.86484442 -79.05639648 129.11352539 C-87.63639648 129.11352539 -96.21639648 129.11352539 -105.05639648 129.11352539 C-107.01141061 94.2787282 -102.78223893 64.09979016 -79.05639648 37.11352539 C-78.39639648 36.12352539 -77.73639648 35.13352539 -77.05639648 34.11352539 C-76.39639648 34.11352539 -75.73639648 34.11352539 -75.05639648 34.11352539 C-74.72639648 33.12352539 -74.39639648 32.13352539 -74.05639648 31.11352539 C-73.39639648 31.11352539 -72.73639648 31.11352539 -72.05639648 31.11352539 C-72.05639648 30.45352539 -72.05639648 29.79352539 -72.05639648 29.11352539 C-70.05535548 27.30711451 -68.05644575 25.63889195 -65.93139648 23.98852539 C-65.30048096 23.49787598 -64.66956543 23.00722656 -64.01953125 22.50170898 C-45.6832874 8.54185795 -23.16452941 -0.1020124 0 0 Z " fill="#D24A25" transform="translate(230.056396484375,156.886474609375)"/>
<path d="M0 0 C8.58 0 17.16 0 26 0 C26 15.18 26 30.36 26 46 C17.42 46 8.84 46 0 46 C0 30.82 0 15.64 0 0 Z " fill="#FCAF05" transform="translate(172,454)"/>
<path d="M0 0 C8.58 0 17.16 0 26 0 C26 15.18 26 30.36 26 46 C17.42 46 8.84 46 0 46 C0 30.82 0 15.64 0 0 Z " fill="#962901" transform="translate(77,454)"/>
<path d="M0 0 C6.1565625 -0.0309375 6.1565625 -0.0309375 12.4375 -0.0625 C14.38160767 -0.07615601 14.38160767 -0.07615601 16.36499023 -0.09008789 C17.88394897 -0.09383423 17.88394897 -0.09383423 19.43359375 -0.09765625 C20.47572021 -0.10289307 21.51784668 -0.10812988 22.59155273 -0.11352539 C25 0 25 0 26 1 C26.0928726 2.41225046 26.11746772 3.82908934 26.11352539 5.24438477 C26.11344986 6.14524307 26.11337433 7.04610138 26.11329651 7.97425842 C26.10813522 8.95341721 26.10297394 9.93257599 26.09765625 10.94140625 C26.0962413 11.93881332 26.09482635 12.9362204 26.09336853 13.96385193 C26.08775114 17.16343124 26.07519571 20.36294169 26.0625 23.5625 C26.05748724 25.72591045 26.05292395 27.88932199 26.04882812 30.05273438 C26.03862505 35.36853774 26.01905308 40.68419139 26 46 C17.42 46 8.84 46 0 46 C0 30.82 0 15.64 0 0 Z " fill="#D04925" transform="translate(125,454)"/>
<path d="M0 0 C8.58 0 17.16 0 26 0 C26 7.92 26 15.84 26 24 C17.42 24 8.84 24 0 24 C0 16.08 0 8.16 0 0 Z " fill="#F9AE08" transform="translate(172,406)"/>
<path d="M0 0 C7.92 0 15.84 0 24 0 C24 8.58 24 17.16 24 26 C16.08 26 8.16 26 0 26 C0 17.42 0 8.84 0 0 Z " fill="#FDAE03" transform="translate(432,206)"/>
<path d="M0 0 C0 8.91 0 17.82 0 27 C-3.774375 27.020625 -7.54875 27.04125 -11.4375 27.0625 C-12.62915771 27.071604 -13.82081543 27.08070801 -15.04858398 27.09008789 C-16.44572632 27.09383423 -16.44572632 27.09383423 -17.87109375 27.09765625 C-18.82943115 27.10289307 -19.78776855 27.10812988 -20.77514648 27.11352539 C-23 27 -23 27 -24 26 C-24.08737645 24.14630389 -24.10698153 22.28932459 -24.09765625 20.43359375 C-24.09443359 19.30888672 -24.09121094 18.18417969 -24.08789062 17.02539062 C-24.07951172 15.84138672 -24.07113281 14.65738281 -24.0625 13.4375 C-24.05798828 12.24962891 -24.05347656 11.06175781 -24.04882812 9.83789062 C-24.03699675 6.89187774 -24.02051287 3.94596319 -24 1 C-20.1875152 0.83298447 -16.37500971 0.66644585 -12.5625 0.5 C-11.47388672 0.45230469 -10.38527344 0.40460938 -9.26367188 0.35546875 C-8.22919922 0.31035156 -7.19472656 0.26523438 -6.12890625 0.21875 C-5.17056885 0.17685547 -4.21223145 0.13496094 -3.22485352 0.09179688 C-1 0 -1 0 0 0 Z " fill="#D34A25" transform="translate(456,156)"/>
<path d="M0 0 C8.58 0 17.16 0 26 0 C26.020625 3.774375 26.04125 7.54875 26.0625 11.4375 C26.071604 12.62915771 26.08070801 13.82081543 26.09008789 15.04858398 C26.09258545 15.98001221 26.09508301 16.91144043 26.09765625 17.87109375 C26.10551147 19.30859985 26.10551147 19.30859985 26.11352539 20.77514648 C26 23 26 23 25 24 C23.07332493 24.08748207 21.14348139 24.10697334 19.21484375 24.09765625 C18.04501953 24.09443359 16.87519531 24.09121094 15.66992188 24.08789062 C13.82237305 24.07532227 13.82237305 24.07532227 11.9375 24.0625 C10.08415039 24.05573242 10.08415039 24.05573242 8.19335938 24.04882812 C5.12888587 24.03699618 2.06443707 24.01906008 -1 24 C-0.67 16.08 -0.34 8.16 0 0 Z " fill="#D34924" transform="translate(125,406)"/>
<path d="M0 0 C1.20692505 0.06465454 1.20692505 0.06465454 2.43823242 0.13061523 C3.45506104 0.19192627 4.47188965 0.2532373 5.51953125 0.31640625 C8.75765625 0.50203125 11.99578125 0.68765625 15.33203125 0.87890625 C15.33203125 9.45890625 15.33203125 18.03890625 15.33203125 26.87890625 C12.09390625 26.89953125 8.85578125 26.92015625 5.51953125 26.94140625 C4.50270264 26.95051025 3.48587402 26.95961426 2.43823242 26.96899414 C1.23130737 26.97274048 1.23130737 26.97274048 0 26.9765625 C-1.23327026 26.98441772 -1.23327026 26.98441772 -2.49145508 26.99243164 C-4.66796875 26.87890625 -4.66796875 26.87890625 -7.66796875 25.87890625 C-7.66796875 17.62890625 -7.66796875 9.37890625 -7.66796875 0.87890625 C-4.68926498 -0.11399501 -3.0761399 -0.17633923 0 0 Z " fill="#FEAF01" transform="translate(391.66796875,205.12109375)"/>
<path d="M0 0 C5.9090625 -0.0309375 5.9090625 -0.0309375 11.9375 -0.0625 C13.18136475 -0.071604 14.42522949 -0.08070801 15.70678711 -0.09008789 C17.16483765 -0.09383423 17.16483765 -0.09383423 18.65234375 -0.09765625 C20.15269165 -0.10551147 20.15269165 -0.10551147 21.68334961 -0.11352539 C24 0 24 0 25 1 C25.08713831 2.70772358 25.10700007 4.41898649 25.09765625 6.12890625 C25.09515869 7.06033447 25.09266113 7.9917627 25.09008789 8.95141602 C25.08098389 10.14307373 25.07187988 11.33473145 25.0625 12.5625 C25.041875 16.336875 25.02125 20.11125 25 24 C16.75 24 8.5 24 0 24 C0 16.08 0 8.16 0 0 Z " fill="#3D7C70" transform="translate(29,310)"/>
<path d="M0 0 C7.59 0 15.18 0 23 0 C23 8.91 23 17.82 23 27 C17.5859375 27.0309375 17.5859375 27.0309375 12.0625 27.0625 C10.92304932 27.071604 9.78359863 27.08070801 8.60961914 27.09008789 C7.71879639 27.09258545 6.82797363 27.09508301 5.91015625 27.09765625 C4.53549194 27.10551147 4.53549194 27.10551147 3.13305664 27.11352539 C1 27 1 27 0 26 C-0.08748207 24.07332493 -0.10697334 22.14348139 -0.09765625 20.21484375 C-0.09443359 19.04501953 -0.09121094 17.87519531 -0.08789062 16.66992188 C-0.07951172 15.43822266 -0.07113281 14.20652344 -0.0625 12.9375 C-0.05798828 11.70193359 -0.05347656 10.46636719 -0.04882812 9.19335938 C-0.03699618 6.12888587 -0.01906008 3.06443707 0 0 Z " fill="#992A02" transform="translate(336,110)"/>
<path d="M0 0 C4.14587582 -0.0268245 8.29158038 -0.04675315 12.4375 -0.0625 C14.21350586 -0.07506836 14.21350586 -0.07506836 16.02539062 -0.08789062 C17.15009766 -0.09111328 18.27480469 -0.09433594 19.43359375 -0.09765625 C20.47572021 -0.10289307 21.51784668 -0.10812988 22.59155273 -0.11352539 C25 0 25 0 26 1 C26.09899523 2.54955559 26.13079524 4.10353673 26.1328125 5.65625 C26.13474609 7.06583984 26.13474609 7.06583984 26.13671875 8.50390625 C26.13285156 9.49261719 26.12898438 10.48132813 26.125 11.5 C26.13080078 12.98306641 26.13080078 12.98306641 26.13671875 14.49609375 C26.13542969 15.43582031 26.13414063 16.37554687 26.1328125 17.34375 C26.13168457 18.21193359 26.13055664 19.08011719 26.12939453 19.97460938 C26 22 26 22 25 23 C23.14630389 23.08737645 21.28932459 23.10698153 19.43359375 23.09765625 C18.30888672 23.09443359 17.18417969 23.09121094 16.02539062 23.08789062 C14.84138672 23.07951172 13.65738281 23.07113281 12.4375 23.0625 C11.24962891 23.05798828 10.06175781 23.05347656 8.83789062 23.04882812 C5.89190588 23.03699686 2.94594684 23.01906076 0 23 C0 15.41 0 7.82 0 0 Z " fill="#992800" transform="translate(77,311)"/>
<path d="M0 0 C8.58 0 17.16 0 26 0 C26 7.26 26 14.52 26 22 C21.85412418 22.0268245 17.70841962 22.04675315 13.5625 22.0625 C11.78649414 22.07506836 11.78649414 22.07506836 9.97460938 22.08789062 C8.84990234 22.09111328 7.72519531 22.09433594 6.56640625 22.09765625 C5.00321655 22.10551147 5.00321655 22.10551147 3.40844727 22.11352539 C1 22 1 22 0 21 C-0.08685603 19.43827255 -0.10702219 17.87270656 -0.09765625 16.30859375 C-0.09515869 15.45837646 -0.09266113 14.60815918 -0.09008789 13.73217773 C-0.08098389 12.64493408 -0.07187988 11.55769043 -0.0625 10.4375 C-0.041875 6.993125 -0.02125 3.54875 0 0 Z " fill="#FEAF02" transform="translate(172,359)"/>
<path d="M0 0 C6.93 0.33 13.86 0.66 21 1 C21 9.58 21 18.16 21 27 C17.720625 27.020625 14.44125 27.04125 11.0625 27.0625 C10.02746338 27.071604 8.99242676 27.08070801 7.92602539 27.09008789 C7.11641357 27.09258545 6.30680176 27.09508301 5.47265625 27.09765625 C4.22367554 27.10551147 4.22367554 27.10551147 2.94946289 27.11352539 C1 27 1 27 0 26 C-0.08748207 24.07332493 -0.10697334 22.14348139 -0.09765625 20.21484375 C-0.09443359 19.04501953 -0.09121094 17.87519531 -0.08789062 16.66992188 C-0.07951172 15.43822266 -0.07113281 14.20652344 -0.0625 12.9375 C-0.05798828 11.70193359 -0.05347656 10.46636719 -0.04882812 9.19335938 C-0.03699618 6.12888587 -0.01906008 3.06443707 0 0 Z " fill="#D34A25" transform="translate(479,156)"/>
<path d="M0 0 C7.26 0.33 14.52 0.66 22 1 C22 8.92 22 16.84 22 25 C11.11 25.495 11.11 25.495 0 26 C0 17.42 0 8.84 0 0 Z " fill="#3E7B6E" transform="translate(384,62)"/>
<path d="M0 0 C7.26 0 14.52 0 22 0 C22 7.92 22 15.84 22 24 C14.74 24 7.48 24 0 24 C0 16.08 0 8.16 0 0 Z " fill="#3D7C70" transform="translate(336,63)"/>
<path d="M0 0 C6.6 0 13.2 0 20 0 C20 8.58 20 17.16 20 26 C13.4 26 6.8 26 0 26 C0 17.42 0 8.84 0 0 Z " fill="#FCAF06" transform="translate(480,206)"/>
<path d="M0 0 C6.6 0 13.2 0 20 0 C20 8.25 20 16.5 20 25 C13.4 25 6.8 25 0 25 C0 16.75 0 8.5 0 0 Z " fill="#972801" transform="translate(480,111)"/>
<path d="M0 0 C3.97921094 -0.02682614 7.95824341 -0.04675393 11.9375 -0.0625 C13.07380859 -0.07087891 14.21011719 -0.07925781 15.38085938 -0.08789062 C16.46044922 -0.09111328 17.54003906 -0.09433594 18.65234375 -0.09765625 C20.15269165 -0.10551147 20.15269165 -0.10551147 21.68334961 -0.11352539 C24 0 24 0 25 1 C25.08651611 2.41570123 25.10704904 3.835595 25.09765625 5.25390625 C25.09515869 6.0229126 25.09266113 6.79191895 25.09008789 7.58422852 C25.08098389 8.56705811 25.07187988 9.5498877 25.0625 10.5625 C25.041875 13.676875 25.02125 16.79125 25 20 C16.75 20 8.5 20 0 20 C0 13.4 0 6.8 0 0 Z " fill="#407A6E" transform="translate(29,360)"/>
<path d="M0 0 C0.33 0 0.66 0 1 0 C1.88113364 43.28874374 2.1885571 86.56391835 2.18511021 129.86094677 C2.18546965 136.49681522 2.19725468 143.13263305 2.2110464 149.76848525 C2.22407384 156.2733052 2.22948966 162.77810206 2.22884732 169.28293496 C2.22859374 173.1218532 2.23137656 176.96070722 2.24202538 180.79961205 C2.25341583 185.00993282 2.24899072 189.22008818 2.24291992 193.43041992 C2.24853943 194.68325272 2.25415894 195.93608551 2.25994873 197.22688293 C2.25575424 198.36152985 2.25155975 199.49617676 2.24723816 200.66520691 C2.24778293 201.65341525 2.24832769 202.64162359 2.24888897 203.65977764 C2 206 2 206 0 208 C-2.60531616 208.21600342 -2.60531616 208.21600342 -5.94677734 208.16699219 C-7.19502289 208.15327576 -8.44326843 208.13955933 -9.7293396 208.12542725 C-11.09821509 208.09974565 -12.46708099 208.07354894 -13.8359375 208.046875 C-15.23596305 208.02577893 -16.63599802 208.00529981 -18.03604126 207.9854126 C-20.97339795 207.94135619 -23.91051316 207.88998858 -26.84765625 207.83349609 C-30.60916844 207.76170415 -34.37068394 207.70763621 -38.13255882 207.65903854 C-41.02547457 207.61975506 -43.91817755 207.57118608 -46.81090164 207.51981354 C-48.19751116 207.4962741 -49.58417197 207.4755773 -50.97086716 207.45778656 C-52.91220622 207.43145172 -54.85334321 207.39131716 -56.79443359 207.35058594 C-57.89870697 207.33122986 -59.00298035 207.31187378 -60.14071655 207.29193115 C-63 207 -63 207 -67 205 C-44.89 205 -22.78 205 0 205 C-0.08378906 195.39648438 -0.16757812 185.79296875 -0.25390625 175.8984375 C-0.30486318 169.66406769 -0.3554243 163.42969843 -0.40429688 157.1953125 C-0.48124732 147.3879789 -0.55946639 137.58067257 -0.64819336 127.7734375 C-1.03197739 85.1627347 -0.94382775 42.60371797 0 0 Z " fill="#F3AB1E" transform="translate(311,0)"/>
<path d="M0 0 C0.33 0 0.66 0 1 0 C1.19840395 3.20775542 1.38175425 6.41620501 1.5625 9.625 C1.64661133 10.98044922 1.64661133 10.98044922 1.73242188 12.36328125 C1.78076172 13.24628906 1.82910156 14.12929687 1.87890625 15.0390625 C1.94960327 16.24876709 1.94960327 16.24876709 2.02172852 17.48291016 C1.99652446 20.40261636 1.5038097 23.12785763 1 26 C-7.27564606 25.91559753 -15.55107742 25.82071479 -23.82644272 25.71247292 C-27.66908919 25.66253995 -31.51170857 25.61620977 -35.35449219 25.578125 C-39.06341688 25.5412341 -42.77211329 25.49486404 -46.48084259 25.44193649 C-47.89536787 25.42341271 -49.30994205 25.40829728 -50.72454071 25.39665604 C-52.70675762 25.37975987 -54.68884792 25.34959077 -56.67089844 25.31884766 C-57.79896912 25.30552399 -58.92703979 25.29220032 -60.08929443 25.2784729 C-63 25 -63 25 -67 23 C-44.89 23 -22.78 23 0 23 C0 15.41 0 7.82 0 0 Z " fill="#EFB02C" transform="translate(311,182)"/>
<path d="M0 0 C8.58 0 17.16 0 26 0 C26 7.26 26 14.52 26 22 C21.85412418 22.0268245 17.70841962 22.04675315 13.5625 22.0625 C11.78649414 22.07506836 11.78649414 22.07506836 9.97460938 22.08789062 C8.84990234 22.09111328 7.72519531 22.09433594 6.56640625 22.09765625 C5.00321655 22.10551147 5.00321655 22.10551147 3.40844727 22.11352539 C1 22 1 22 0 21 C-0.08685603 19.43827255 -0.10702219 17.87270656 -0.09765625 16.30859375 C-0.09515869 15.45837646 -0.09266113 14.60815918 -0.09008789 13.73217773 C-0.08098389 12.64493408 -0.07187988 11.55769043 -0.0625 10.4375 C-0.041875 6.993125 -0.02125 3.54875 0 0 Z M2 2 C1.15813297 6.20933513 0.89464473 9.56982867 0.9375 13.8125 C0.958125 15.854375 0.97875 17.89625 1 20 C8.59 20 16.18 20 24 20 C25.28365387 17.43269226 25.13275635 15.55347003 25.125 12.6875 C25.12757813 11.74261719 25.13015625 10.79773438 25.1328125 9.82421875 C25.05249396 6.61317403 25.05249396 6.61317403 24 2 C16.74 2 9.48 2 2 2 Z " fill="#EF991C" transform="translate(172,359)"/>
<path d="M0 0 C9.61384418 -0.04627741 19.22765021 -0.08184573 28.84158134 -0.10362434 C33.30539755 -0.11407534 37.76913772 -0.12825844 42.23291016 -0.15087891 C46.53820674 -0.17256052 50.84343005 -0.1845587 55.14877701 -0.18975449 C56.79387694 -0.19345869 58.43897273 -0.20069177 60.0840416 -0.21146011 C62.38277704 -0.22591299 64.68120713 -0.22798058 66.97998047 -0.22705078 C68.2901413 -0.231492 69.60030212 -0.23593323 70.95016479 -0.24050903 C74 0 74 0 76 2 C28.16750311 3.29246011 28.16750311 3.29246011 12.6875 2.6875 C11.70789307 2.65277588 10.72828613 2.61805176 9.71899414 2.58227539 C3.3962764 2.26418426 3.3962764 2.26418426 0 0 Z " fill="#F49B15" transform="translate(74,309)"/>
<path d="M0 0 C1.20692505 0.06465454 1.20692505 0.06465454 2.43823242 0.13061523 C3.45506104 0.19192627 4.47188965 0.2532373 5.51953125 0.31640625 C8.75765625 0.50203125 11.99578125 0.68765625 15.33203125 0.87890625 C15.33203125 9.45890625 15.33203125 18.03890625 15.33203125 26.87890625 C8.73203125 26.87890625 2.13203125 26.87890625 -4.66796875 26.87890625 C-4.66796875 26.54890625 -4.66796875 26.21890625 -4.66796875 25.87890625 C1.27203125 25.54890625 7.21203125 25.21890625 13.33203125 24.87890625 C13.33203125 17.28890625 13.33203125 9.69890625 13.33203125 1.87890625 C6.73203125 1.87890625 0.13203125 1.87890625 -6.66796875 1.87890625 C-6.66796875 9.79890625 -6.66796875 17.71890625 -6.66796875 25.87890625 C-6.99796875 25.87890625 -7.32796875 25.87890625 -7.66796875 25.87890625 C-7.66796875 17.62890625 -7.66796875 9.37890625 -7.66796875 0.87890625 C-4.68926498 -0.11399501 -3.0761399 -0.17633923 0 0 Z " fill="#F4A71D" transform="translate(391.66796875,205.12109375)"/>
<path d="M0 0 C2.06298828 -0.2487793 2.06298828 -0.2487793 4.5703125 -0.07421875 C5.91416016 0.00795898 5.91416016 0.00795898 7.28515625 0.09179688 C8.22230469 0.16462891 9.15945312 0.23746094 10.125 0.3125 C11.06988281 0.37373047 12.01476562 0.43496094 12.98828125 0.49804688 C15.32681186 0.65158676 17.66342389 0.81946076 20 1 C20 1.33 20 1.66 20 2 C13.4 2 6.8 2 0 2 C0 9.92 0 17.84 0 26 C-8.91 26 -17.82 26 -27 26 C-26.67 25.34 -26.34 24.68 -26 24 C-18.08 24 -10.16 24 -2 24 C-2.07899824 17.22383737 -2.07899824 17.22383737 -2.18017578 10.44799805 C-2.1851709 9.60277588 -2.19016602 8.75755371 -2.1953125 7.88671875 C-2.20578613 7.02264404 -2.21625977 6.15856934 -2.22705078 5.26831055 C-2 3 -2 3 0 0 Z " fill="#813312" transform="translate(103,404)"/>
<path d="M0 0 C0 8.91 0 17.82 0 27 C-7.59 27 -15.18 27 -23 27 C-21 25 -21 25 -17.0859375 24.8046875 C-15.51550649 24.81799624 -13.94513779 24.84186398 -12.375 24.875 C-11.57320313 24.88402344 -10.77140625 24.89304688 -9.9453125 24.90234375 C-7.96341477 24.92593777 -5.98167019 24.96180935 -4 25 C-3.0699111 22.2097333 -2.81301231 20.23470458 -2.68359375 17.33203125 C-2.64169922 16.43935547 -2.59980469 15.54667969 -2.55664062 14.62695312 C-2.51732422 13.69818359 -2.47800781 12.76941406 -2.4375 11.8125 C-2.39431641 10.87212891 -2.35113281 9.93175781 -2.30664062 8.96289062 C-2.20061335 6.64207146 -2.09854971 4.32114675 -2 2 C-3.65 2.33 -5.3 2.66 -7 3 C-7.33 2.34 -7.66 1.68 -8 1 C-1.125 0 -1.125 0 0 0 Z " fill="#B55437" transform="translate(456,156)"/>
<path d="M0 0 C0 0.66 0 1.32 0 2 C-4.29945175 3.21463774 -8.46655855 3.08957188 -12.89941406 3.02172852 C-14.24628296 3.0073172 -14.24628296 3.0073172 -15.62036133 2.99261475 C-18.58552982 2.95965823 -21.55054945 2.91931304 -24.515625 2.87890625 C-26.57256548 2.85460187 -28.62951145 2.83075847 -30.6864624 2.80735779 C-36.09849306 2.74454855 -41.51042636 2.67547287 -46.92236328 2.60510254 C-52.44559294 2.53439061 -57.9688916 2.46959074 -63.4921875 2.40429688 C-74.32820082 2.27532525 -85.1641205 2.139735 -96 2 C-96 1.67 -96 1.34 -96 1 C-84.22143054 0.8692922 -72.44285783 0.73888097 -60.66428089 0.60884857 C-55.19504956 0.54846037 -49.72581941 0.48796993 -44.2565918 0.42724609 C-38.97871345 0.36865053 -33.70083221 0.3103232 -28.42294884 0.25218201 C-26.40912457 0.22995053 -24.39530137 0.20762233 -22.38147926 0.18519592 C-19.56136979 0.15380701 -16.74125673 0.12276167 -13.92114258 0.09179688 C-12.67173134 0.07777077 -12.67173134 0.07777077 -11.39707947 0.0634613 C-7.59782913 0.02208274 -3.79955217 -0.01122265 0 0 Z " fill="#9A3814" transform="translate(294,379)"/>
<path d="M0 0 C0.33 0 0.66 0 1 0 C1.33 6.93 1.66 13.86 2 21 C9.26 21 16.52 21 24 21 C24.33 14.07 24.66 7.14 25 0 C25.33 0 25.66 0 26 0 C26 7.59 26 15.18 26 23 C21.85412418 23.0268245 17.70841962 23.04675315 13.5625 23.0625 C11.78649414 23.07506836 11.78649414 23.07506836 9.97460938 23.08789062 C8.84990234 23.09111328 7.72519531 23.09433594 6.56640625 23.09765625 C5.00321655 23.10551147 5.00321655 23.10551147 3.40844727 23.11352539 C1 23 1 23 0 22 C-0.08700342 20.36527118 -0.10701063 18.72685945 -0.09765625 17.08984375 C-0.09443359 16.10048828 -0.09121094 15.11113281 -0.08789062 14.09179688 C-0.07951172 13.05087891 -0.07113281 12.00996094 -0.0625 10.9375 C-0.05798828 9.89271484 -0.05347656 8.84792969 -0.04882812 7.77148438 C-0.03699913 5.1809334 -0.02051689 2.59049441 0 0 Z " fill="#F3A023" transform="translate(172,312)"/>
<path d="M0 0 C7.26 0 14.52 0 22 0 C22 8.58 22 17.16 22 26 C15.4 26 8.8 26 2 26 C2 25.67 2 25.34 2 25 C10.415 24.505 10.415 24.505 19 24 C19.33 16.41 19.66 8.82 20 1 C13.4 1 6.8 1 0 1 C0 0.67 0 0.34 0 0 Z " fill="#E2AE26" transform="translate(434,206)"/>
<path d="M0 0 C0.33 0 0.66 0 1 0 C1.02887236 3.81248426 1.04675492 7.6249407 1.0625 11.4375 C1.07087891 12.52611328 1.07925781 13.61472656 1.08789062 14.73632812 C1.09272461 16.28803711 1.09272461 16.28803711 1.09765625 17.87109375 C1.10551147 19.30859985 1.10551147 19.30859985 1.11352539 20.77514648 C1 23 1 23 0 24 C-1.92667507 24.08748207 -3.85651861 24.10697334 -5.78515625 24.09765625 C-6.95498047 24.09443359 -8.12480469 24.09121094 -9.33007812 24.08789062 C-11.17762695 24.07532227 -11.17762695 24.07532227 -13.0625 24.0625 C-14.91584961 24.05573242 -14.91584961 24.05573242 -16.80664062 24.04882812 C-19.87114117 24.03699608 -22.93554721 24.02051173 -26 24 C-25.67 23.34 -25.34 22.68 -25 22 C-17.08 22 -9.16 22 -1 22 C-1.03958469 15.13387193 -1.03958469 15.13387193 -1.09008789 8.26782227 C-1.09258545 7.41760498 -1.09508301 6.5673877 -1.09765625 5.69140625 C-1.10551147 4.37958374 -1.10551147 4.37958374 -1.11352539 3.04125977 C-1 1 -1 1 0 0 Z " fill="#AD5033" transform="translate(150,406)"/>
<path d="M0 0 C0.99 0.495 0.99 0.495 2 1 C2 7.6 2 14.2 2 21 C5.073125 20.979375 8.14625 20.95875 11.3125 20.9375 C24.55495132 20.89557733 37.7719962 21.42974898 51 22 C51 22.33 51 22.66 51 23 C34.17 23 17.34 23 0 23 C0 15.41 0 7.82 0 0 Z " fill="#456F63" transform="translate(52,408)"/>
<path d="M0 0 C3.47914941 -0.02887814 6.95826831 -0.04675687 10.4375 -0.0625 C11.92733398 -0.07506836 11.92733398 -0.07506836 13.44726562 -0.08789062 C14.39150391 -0.09111328 15.33574219 -0.09433594 16.30859375 -0.09765625 C17.62041626 -0.10551147 17.62041626 -0.10551147 18.95874023 -0.11352539 C21 0 21 0 22 1 C22.08748207 2.92667507 22.10697334 4.85651861 22.09765625 6.78515625 C22.09443359 7.95498047 22.09121094 9.12480469 22.08789062 10.33007812 C22.07951172 11.56177734 22.07113281 12.79347656 22.0625 14.0625 C22.05798828 15.29806641 22.05347656 16.53363281 22.04882812 17.80664062 C22.03699608 20.87114117 22.02051173 23.93554721 22 27 C21.01 26.34 20.02 25.68 19 25 C18.7512207 22.66162109 18.7512207 22.66162109 18.92578125 19.7734375 C18.98056641 18.7421875 19.03535156 17.7109375 19.09179688 16.6484375 C19.16462891 15.56820312 19.23746094 14.48796875 19.3125 13.375 C19.4043457 11.74304688 19.4043457 11.74304688 19.49804688 10.078125 C19.65162516 7.38459811 19.82405579 4.69215843 20 2 C13.73 2 7.46 2 1 2 C0.67 1.34 0.34 0.68 0 0 Z " fill="#F2A222" transform="translate(337,205)"/>
<path d="M0 0 C0.99 0.495 0.99 0.495 2 1 C2 8.92 2 16.84 2 25 C8.27 25 14.54 25 21 25 C21 25.66 21 26.32 21 27 C17.68751813 27.02888146 14.37506833 27.04675799 11.0625 27.0625 C10.11697266 27.07087891 9.17144531 27.07925781 8.19726562 27.08789062 C6.84858398 27.09272461 6.84858398 27.09272461 5.47265625 27.09765625 C4.22367554 27.10551147 4.22367554 27.10551147 2.94946289 27.11352539 C1 27 1 27 0 26 C-0.08748207 24.07332493 -0.10697334 22.14348139 -0.09765625 20.21484375 C-0.09443359 19.04501953 -0.09121094 17.87519531 -0.08789062 16.66992188 C-0.07951172 15.43822266 -0.07113281 14.20652344 -0.0625 12.9375 C-0.05798828 11.70193359 -0.05347656 10.46636719 -0.04882812 9.19335938 C-0.03699608 6.12885883 -0.02051173 3.06445279 0 0 Z " fill="#A55C41" transform="translate(479,156)"/>
<path d="M0 0 C0.99 0 1.98 0 3 0 C3 9.9 3 19.8 3 30 C0 27 0 27 -0.34057617 24.1809082 C-0.32486572 23.06546631 -0.30915527 21.95002441 -0.29296875 20.80078125 C-0.28330078 19.59228516 -0.27363281 18.38378906 -0.26367188 17.13867188 C-0.23853516 15.87603516 -0.21339844 14.61339844 -0.1875 13.3125 C-0.17396484 12.03826172 -0.16042969 10.76402344 -0.14648438 9.45117188 C-0.11108199 6.30035943 -0.0616979 3.15038955 0 0 Z " fill="#5F8356" transform="translate(477,206)"/>
<path d="M0 0 C3.41664873 -0.02908357 6.8332655 -0.04682691 10.25 -0.0625 C11.70212891 -0.07506836 11.70212891 -0.07506836 13.18359375 -0.08789062 C14.11816406 -0.09111328 15.05273438 -0.09433594 16.015625 -0.09765625 C16.87446289 -0.10289307 17.73330078 -0.10812988 18.61816406 -0.11352539 C20.90526872 -0.00451517 22.79105512 0.43651552 25 1 C26.7316239 1.1437323 28.46698333 1.24574932 30.203125 1.31640625 C31.1828125 1.35830078 32.1625 1.40019531 33.171875 1.44335938 C34.18765625 1.48267578 35.2034375 1.52199219 36.25 1.5625 C37.796875 1.62727539 37.796875 1.62727539 39.375 1.69335938 C41.9165387 1.79925682 44.45817196 1.90133443 47 2 C47 2.33 47 2.66 47 3 C39.41 3 31.82 3 24 3 C23.67 3.99 23.34 4.98 23 6 C22.34 5.34 21.68 4.68 21 4 C18.6754661 3.62948007 18.6754661 3.62948007 15.9921875 3.5859375 C15.00605469 3.54726563 14.01992188 3.50859375 13.00390625 3.46875 C11.97136719 3.4378125 10.93882813 3.406875 9.875 3.375 C8.83472656 3.33632813 7.79445313 3.29765625 6.72265625 3.2578125 C4.14861689 3.16335234 1.57458845 3.07778786 -1 3 C-0.67 2.01 -0.34 1.02 0 0 Z " fill="#8F2F0D" transform="translate(30,403)"/>
<path d="M0 0 C0.33 0 0.66 0 1 0 C1.29629261 5.03697445 1.0710449 7.94183352 -2 12 C-3.33333333 13.33333333 -4.66666667 14.66666667 -6 16 C-6.33 16.99 -6.66 17.98 -7 19 C-7.66 19 -8.32 19 -9 19 C-9.28875 19.5775 -9.5775 20.155 -9.875 20.75 C-10.24625 21.4925 -10.6175 22.235 -11 23 C-11.37125 23.9590625 -11.37125 23.9590625 -11.75 24.9375 C-13.61527038 28.01519613 -16.17287546 29.78746776 -19 32 C-19.66 31.67 -20.32 31.34 -21 31 C-20.3709375 30.35675781 -19.741875 29.71351563 -19.09375 29.05078125 C-10.84908511 20.3466998 -4.5828961 11.15591832 0 0 Z " fill="#C34F31" transform="translate(352,281)"/>
<path d="M0 0 C0.33 0 0.66 0 1 0 C1 2.64 1 5.28 1 8 C-7.25 8 -15.5 8 -24 8 C-23.67 6.68 -23.34 5.36 -23 4 C-23 4.66 -23 5.32 -23 6 C-16.4 6 -9.8 6 -3 6 C-2.34 4.68 -1.68 3.36 -1 2 C-0.67 1.34 -0.34 0.68 0 0 Z " fill="#4E7A57" transform="translate(53,277)"/>
<path d="M0 0 C0.66 0.33 1.32 0.66 2 1 C0.9171875 2.051875 0.9171875 2.051875 -0.1875 3.125 C-5.56431436 8.4226512 -5.56431436 8.4226512 -9 15 C-9.66 15 -10.32 15 -11 15 C-11.33 16.32 -11.66 17.64 -12 19 C-12.66 19 -13.32 19 -14 19 C-14 20.98 -14 22.96 -14 25 C-14.99 25.33 -15.98 25.66 -17 26 C-17.73323796 28.01508358 -17.73323796 28.01508358 -18 30 C-19 28 -19 28 -18.50390625 26.00390625 C-14.54260514 15.73082247 -8.08463402 7.40249303 0 0 Z " fill="#F0B525" transform="translate(194,218)"/>
<path d="M0 0 C0.66 0.33 1.32 0.66 2 1 C0.29101326 2.70898674 -1.41819904 4.41773486 -3.12890625 6.125 C-4.63713727 7.63637972 -6.13305948 9.16003709 -7.625 10.6875 C-10 13 -10 13 -12.625 15.0625 C-14.89107833 16.91114285 -16.47575177 18.51306867 -18 21 C-18 21.99 -18 22.98 -18 24 C-19.32 23.34 -20.64 22.68 -22 22 C-15.32319947 13.95359936 -8.04640064 6.67680053 0 0 Z M-21 24 C-19 25 -19 25 -19 25 Z " fill="#3E7168" transform="translate(102,109)"/>
<path d="M0 0 C2.31 0 4.62 0 7 0 C7 0.33 7 0.66 7 1 C5.35 1 3.7 1 2 1 C2.08084703 4.27184808 2.19368874 7.54182779 2.3125 10.8125 C2.33505859 11.74126953 2.35761719 12.67003906 2.38085938 13.62695312 C2.41630859 14.51962891 2.45175781 15.41230469 2.48828125 16.33203125 C2.51446533 17.15421143 2.54064941 17.9763916 2.56762695 18.82348633 C3.08463956 21.42606532 3.98202695 22.33910717 6 24 C4.02 24 2.04 24 0 24 C0 16.08 0 8.16 0 0 Z " fill="#547D53" transform="translate(336,63)"/>
<path d="M0 0 C1.65 0 3.3 0 5 0 C3.3486587 5.98611221 0.99792858 11.13051377 -2.0625 16.5 C-2.41505859 17.12342285 -2.76761719 17.7468457 -3.13085938 18.38916016 C-5.74122046 22.87061023 -5.74122046 22.87061023 -8 24 C-7.40165275 19.85701333 -5.99335715 16.81805623 -3.9375 13.1875 C-3.11572266 11.72376953 -3.11572266 11.72376953 -2.27734375 10.23046875 C-1.85582031 9.49441406 -1.43429687 8.75835937 -1 8 C-0.34 8 0.32 8 1 8 C0.67 5.36 0.34 2.72 0 0 Z " fill="#C74C30" transform="translate(372,289)"/>
<path d="M0 0 C7.92 0 15.84 0 24 0 C24.33 1.65 24.66 3.3 25 5 C24.34 5 23.68 5 23 5 C23 4.01 23 3.02 23 2 C15.41 2 7.82 2 0 2 C0 1.34 0 0.68 0 0 Z " fill="#6B8445" transform="translate(29,310)"/>
<path d="M0 0 C1.15507777 3.93421227 0.83585767 6.97268577 0 11 C-0.99 11.495 -0.99 11.495 -2 12 C-2.8780345 14.77229377 -2.8780345 14.77229377 -3.5625 18 C-4.90687023 23.90687023 -4.90687023 23.90687023 -6 25 C-6.144375 26.155 -6.28875 27.31 -6.4375 28.5 C-6.623125 29.655 -6.80875 30.81 -7 32 C-7.99 32.495 -7.99 32.495 -9 33 C-8.38776182 21.57155399 -4.18281123 10.56710205 0 0 Z " fill="#832B0D" transform="translate(88,207)"/>
<path d="M0 0 C0.33 1.32 0.66 2.64 1 4 C1.66 4 2.32 4 3 4 C4 7 4 7 3.22265625 8.82421875 C2.1484375 10.54947917 1.07421875 12.27473958 0 14 C-0.66 14 -1.32 14 -2 14 C-3.62514468 15.45833358 -3.62514468 15.45833358 -5 17 C-1.92482916 5.47835991 -1.92482916 5.47835991 0 0 Z " fill="#CC4A26" transform="translate(132,224)"/>
<path d="M0 0 C2.31 0 4.62 0 7 0 C7 8.58 7 17.16 7 26 C6.67 26 6.34 26 6 26 C4.93690433 20.82682579 4.88306062 15.87630664 4.9375 10.625 C4.94201172 9.79355469 4.94652344 8.96210938 4.95117188 8.10546875 C4.96286836 6.07028103 4.98080065 4.03513077 5 2 C3.35 1.67 1.7 1.34 0 1 C0 0.67 0 0.34 0 0 Z " fill="#CE5110" transform="translate(304,157)"/>
<path d="M0 0 C0 0.66 0 1.32 0 2 C-8.58 2 -17.16 2 -26 2 C-26 1.34 -26 0.68 -26 0 C-22.22958744 -0.19670554 -18.45866237 -0.38078426 -14.6875 -0.5625 C-13.61564453 -0.61857422 -12.54378906 -0.67464844 -11.43945312 -0.73242188 C-9.89741211 -0.80493164 -9.89741211 -0.80493164 -8.32421875 -0.87890625 C-7.37635498 -0.9260376 -6.42849121 -0.97316895 -5.4519043 -1.02172852 C-3 -1 -3 -1 0 0 Z " fill="#5E8055" transform="translate(198,452)"/>
<path d="M0 0 C0.33 0 0.66 0 1 0 C1 4.95 1 9.9 1 15 C-7.25 15 -15.5 15 -24 15 C-24 14.67 -24 14.34 -24 14 C-23.41508789 13.97494385 -22.83017578 13.9498877 -22.22753906 13.92407227 C-19.56815529 13.80777038 -16.90909597 13.68519933 -14.25 13.5625 C-12.86941406 13.50352539 -12.86941406 13.50352539 -11.4609375 13.44335938 C-10.12675781 13.38051758 -10.12675781 13.38051758 -8.765625 13.31640625 C-7.94868164 13.27974854 -7.13173828 13.24309082 -6.29003906 13.20532227 C-3.68732389 13.03157467 -3.68732389 13.03157467 0 12 C0 8.04 0 4.08 0 0 Z " fill="#4F6E61" transform="translate(53,319)"/>
<path d="M0 0 C0.33 0 0.66 0 1 0 C1 6.93 1 13.86 1 21 C0.34 21.33 -0.32 21.66 -1 22 C-2.17799662 17.53416206 -1.95279624 13.30636776 -1.625 8.75 C-1.58117187 8.0178125 -1.53734375 7.285625 -1.4921875 6.53125 C-1.13225446 1.13225446 -1.13225446 1.13225446 0 0 Z " fill="#7F2A16" transform="translate(102,312)"/>
<path d="M0 0 C3.63 0.33 7.26 0.66 11 1 C3.76306482 4.61846759 -3.98845941 5.30232229 -12 5 C-11.67 4.01 -11.34 3.02 -11 2 C-7.37 2 -3.74 2 0 2 C0 1.34 0 0.68 0 0 Z " fill="#C55030" transform="translate(295,354)"/>
<path d="M0 0 C0.66 0 1.32 0 2 0 C2 7.92 2 15.84 2 24 C1.01 23.67 0.02 23.34 -1 23 C-1 22.34 -1 21.68 -1 21 C-2.32 21 -3.64 21 -5 21 C-5 20.34 -5 19.68 -5 19 C-3.02 19 -1.04 19 1 19 C0.67 12.73 0.34 6.46 0 0 Z " fill="#8E2C04" transform="translate(453,111)"/>
<path d="M0 0 C0.66 0.33 1.32 0.66 2 1 C1.68289062 1.89847656 1.36578125 2.79695312 1.0390625 3.72265625 C-0.52241224 9.18781783 -0.46415808 14.79127847 -0.625 20.4375 C-0.66367188 21.55060547 -0.70234375 22.66371094 -0.7421875 23.81054688 C-0.83590966 26.54020476 -0.92162294 29.26986563 -1 32 C-1.33 32 -1.66 32 -2 32 C-2 22.1 -2 12.2 -2 2 C-1.34 2 -0.68 2 0 2 C0 1.34 0 0.68 0 0 Z " fill="#F7B627" transform="translate(199,252)"/>
<path d="M0 0 C0 3.04122415 -0.34935177 4.06538899 -1.6796875 6.6875 C-2.20755859 7.73550781 -2.20755859 7.73550781 -2.74609375 8.8046875 C-3.11863281 9.52914062 -3.49117187 10.25359375 -3.875 11 C-4.42220703 12.08667969 -4.42220703 12.08667969 -4.98046875 13.1953125 C-6.53641233 16.26193585 -8.08788114 19.1318217 -10 22 C-10.33 20.35 -10.66 18.7 -11 17 C-10.34 16.67 -9.68 16.34 -9 16 C-8.29373761 14.01363702 -7.63106429 12.01151741 -7 10 C-6.36184656 8.65278717 -5.70674629 7.31252882 -5 6 C-4.34 6 -3.68 6 -3 6 C-3 4.68 -3 3.36 -3 2 C-2.01 1.34 -1.02 0.68 0 0 Z " fill="#BF4F31" transform="translate(164,218)"/>
<path d="M0 0 C0 0.66 0 1.32 0 2 C-1.65 2.33 -3.3 2.66 -5 3 C-5.33 3.99 -5.66 4.98 -6 6 C-7.70703125 7.1328125 -7.70703125 7.1328125 -9.8125 8.125 C-10.49957031 8.45757812 -11.18664062 8.79015625 -11.89453125 9.1328125 C-13.91699695 9.96581322 -15.86693207 10.53024571 -18 11 C-14.95124073 7.67140292 -11.78089042 5.49564707 -7.875 3.25 C-6.82054687 2.63640625 -5.76609375 2.0228125 -4.6796875 1.390625 C-2 0 -2 0 0 0 Z " fill="#C34A2C" transform="translate(186,168)"/>
<path d="M0 0 C-0.66 0 -1.32 0 -2 0 C-2 0.99 -2 1.98 -2 3 C-3.134375 3.12375 -4.26875 3.2475 -5.4375 3.375 C-7.2009375 3.684375 -7.2009375 3.684375 -9 4 C-9.33 4.66 -9.66 5.32 -10 6 C-13.0625 6.625 -13.0625 6.625 -16 7 C-12.26910751 2.45804392 -5.88161013 -1.96053671 0 0 Z " fill="#F5B322" transform="translate(215,209)"/>
<path d="M0 0 C12.87 0.495 12.87 0.495 26 1 C26 1.33 26 1.66 26 2 C12.635 2.495 12.635 2.495 -1 3 C-0.67 2.01 -0.34 1.02 0 0 Z " fill="#D14F13" transform="translate(172,334)"/>
<path d="M0 0 C1.65 0.33 3.3 0.66 5 1 C-0.0022779 10.59453303 -0.0022779 10.59453303 -4 14 C-3.67 12.35 -3.34 10.7 -3 9 C-2.34 9 -1.68 9 -1 9 C-0.87625 8.236875 -0.7525 7.47375 -0.625 6.6875 C0 4 0 4 2 1 C1.34 0.67 0.68 0.34 0 0 Z " fill="#8C2B0B" transform="translate(124,187)"/>
<path d="M0 0 C0.66 0.33 1.32 0.66 2 1 C0.625 2.5 0.625 2.5 -1 4 C-1.66 4 -2.32 4 -3 4 C-3.20625 4.556875 -3.4125 5.11375 -3.625 5.6875 C-5.55000774 8.92501302 -8.03850902 10.68231141 -11 13 C-10.52575143 8.73176286 -8.04238597 6.82507269 -5 4 C-4.443125 3.4225 -3.88625 2.845 -3.3125 2.25 C-2 1 -2 1 0 0 Z " fill="#832C12" transform="translate(144,170)"/>
<path d="M0 0 C0.66 0.33 1.32 0.66 2 1 C1.40832031 1.38671875 0.81664062 1.7734375 0.20703125 2.171875 C-3.24698076 4.44825486 -6.61430069 6.68286946 -9.8125 9.3125 C-11.95816148 10.96772457 -13.34833143 11.60716021 -16 12 C-16 11.34 -16 10.68 -16 10 C-13.91978313 8.57560043 -11.85755579 7.2729764 -9.6875 6 C-8.50369243 5.29202407 -7.32009196 4.58370172 -6.13671875 3.875 C-5.10160156 3.25625 -4.06648438 2.6375 -3 2 C-2.01 1.34 -1.02 0.68 0 0 Z " fill="#406E65" transform="translate(131,89)"/>
<path d="M0 0 C8.25 0 16.5 0 25 0 C24.67 1.32 24.34 2.64 24 4 C23.34 3.34 22.68 2.68 22 2 C19.6754661 1.62948007 19.6754661 1.62948007 16.9921875 1.5859375 C16.00605469 1.54726563 15.01992188 1.50859375 14.00390625 1.46875 C12.97136719 1.4378125 11.93882813 1.406875 10.875 1.375 C9.83472656 1.33632813 8.79445313 1.29765625 7.72265625 1.2578125 C5.14861689 1.16335234 2.57458845 1.07778786 0 1 C0 0.67 0 0.34 0 0 Z " fill="#6E4529" transform="translate(29,405)"/>
<path d="M0 0 C0.66 0 1.32 0 2 0 C1.34 1.32 0.68 2.64 0 4 C-0.66 4 -1.32 4 -2 4 C-2.2475 4.928125 -2.495 5.85625 -2.75 6.8125 C-4.06454245 10.16458325 -4.97963384 11.1877803 -8 13 C-8.66 12.67 -9.32 12.34 -10 12 C-8.38201759 9.99394062 -6.75623702 7.99523205 -5.125 6 C-4.66480469 5.42765625 -4.20460938 4.8553125 -3.73046875 4.265625 C-2.53150078 2.80601181 -1.26958455 1.3986243 0 0 Z " fill="#40756A" transform="translate(78,133)"/>
<path d="M0 0 C0.66 0.66 1.32 1.32 2 2 C4.73434962 2.3063859 7.38279821 2.5113336 10.125 2.625 C10.87910156 2.66367187 11.63320312 2.70234375 12.41015625 2.7421875 C14.27303184 2.83651031 16.13648255 2.91934662 18 3 C18 3.33 18 3.66 18 4 C10.08 4 2.16 4 -6 4 C-6 3.67 -6 3.34 -6 3 C-5.195625 2.87625 -4.39125 2.7525 -3.5625 2.625 C-2.716875 2.41875 -1.87125 2.2125 -1 2 C-0.67 1.34 -0.34 0.68 0 0 Z " fill="#F2AD1F" transform="translate(59,307)"/>
<path d="M0 0 C1.1446875 0.12375 1.1446875 0.12375 2.3125 0.25 C1.38288578 1.40224028 0.4434875 2.54659176 -0.5 3.6875 C-1.28310547 4.64462891 -1.28310547 4.64462891 -2.08203125 5.62109375 C-3.6875 7.25 -3.6875 7.25 -6.6875 8.25 C-5.9168107 3.93413993 -4.72992724 0.43999323 0 0 Z " fill="#F2B020" transform="translate(319.6875,289.75)"/>
<path d="M0 0 C0.33 1.32 0.66 2.64 1 4 C-0.98 4.99 -0.98 4.99 -3 6 C-3 6.66 -3 7.32 -3 8 C-3.66 8 -4.32 8 -5 8 C-5.66 9.65 -6.32 11.3 -7 13 C-7.66 12.67 -8.32 12.34 -9 12 C-7.68858144 10.18671738 -6.37583526 8.37439486 -5.0625 6.5625 C-3.96615234 5.04849609 -3.96615234 5.04849609 -2.84765625 3.50390625 C-1 1 -1 1 0 0 Z " fill="#C04E31" transform="translate(150,195)"/>
<path d="M0 0 C0 0.66 0 1.32 0 2 C-2.90669462 2.85305168 -5.31048873 3.07289715 -8.328125 2.87890625 C-9.12734375 2.83056641 -9.9265625 2.78222656 -10.75 2.73242188 C-11.575 2.67634766 -12.4 2.62027344 -13.25 2.5625 C-14.09046875 2.51029297 -14.9309375 2.45808594 -15.796875 2.40429688 C-17.8649352 2.27504311 -19.9325222 2.13825726 -22 2 C-22 1.67 -22 1.34 -22 1 C-19.27093526 0.83150207 -16.54176829 0.6651397 -13.8125 0.5 C-13.04357422 0.45230469 -12.27464844 0.40460938 -11.48242188 0.35546875 C-7.648496 0.12510411 -3.84309823 -0.0616128 0 0 Z " fill="#8F310F" transform="translate(294,379)"/>
<path d="M0 0 C2.97 0 5.94 0 9 0 C5.79906063 3.20093937 1.33842782 3.85960658 -3.08203125 4.125 C-4.7218836 4.125 -6.36156928 4.06826795 -8 4 C-6 2 -6 2 -2.875 1.875 C-1.92625 1.91625 -0.9775 1.9575 0 2 C0 1.34 0 0.68 0 0 Z " fill="#F4B21F" transform="translate(288,307)"/>
<path d="M0 0 C2 4 2 4 1.57421875 6.4375 C1.28160156 7.283125 0.98898437 8.12875 0.6875 9 C0.26017578 10.2684375 0.26017578 10.2684375 -0.17578125 11.5625 C-0.44777344 12.366875 -0.71976562 13.17125 -1 14 C-1.3481091 15.32955216 -1.68711521 16.66172051 -2 18 C-2.66 18 -3.32 18 -4 18 C-2.68 12.06 -1.36 6.12 0 0 Z " fill="#48776E" transform="translate(451,286)"/>
<path d="M0 0 C0.33 0.66 0.66 1.32 1 2 C1.66 2.33 2.32 2.66 3 3 C2.01 3.33 1.02 3.66 0 4 C-0.33 4.99 -0.66 5.98 -1 7 C-1.66 7 -2.32 7 -3 7 C-3.2475 7.639375 -3.495 8.27875 -3.75 8.9375 C-5 11 -5 11 -7.078125 11.62890625 C-8.02945312 11.81259766 -8.02945312 11.81259766 -9 12 C-8.60167969 11.55269531 -8.20335937 11.10539062 -7.79296875 10.64453125 C-4.82015875 7.25220061 -2.1717806 3.98159776 0 0 Z " fill="#F1B71E" transform="translate(306,267)"/>
<path d="M0 0 C0.66 0 1.32 0 2 0 C1.55520961 5.04095775 -0.66154153 7.41115715 -4 11 C-4.33 11 -4.66 11 -5 11 C-5 9.35 -5 7.7 -5 6 C-4.01 5.67 -3.02 5.34 -2 5 C-2 4.34 -2 3.68 -2 3 C-1.01 3 -0.02 3 1 3 C0.67 2.01 0.34 1.02 0 0 Z " fill="#C44E32" transform="translate(170,207)"/>
<path d="M0 0 C-1.23263349 3.69790046 -2.20052451 3.9354846 -5.5625 5.6875 C-6.80193359 6.34298828 -6.80193359 6.34298828 -8.06640625 7.01171875 C-8.70449219 7.33785156 -9.34257812 7.66398437 -10 8 C-9.67 7.01 -9.34 6.02 -9 5 C-8.34 5 -7.68 5 -7 5 C-7 4.01 -7 3.02 -7 2 C-2.25 0 -2.25 0 0 0 Z " fill="#8A2C0A" transform="translate(362,378)"/>
<path d="M0 0 C0.66 1.32 1.32 2.64 2 4 C1.01 4.33 0.02 4.66 -1 5 C-1.144375 5.94875 -1.28875 6.8975 -1.4375 7.875 C-2 11 -2 11 -3 13 C-3.66 13 -4.32 13 -5 13 C-4.39254603 8.14036821 -2.27241033 4.2594482 0 0 Z " fill="#8B2B0B" transform="translate(94,194)"/>
<path d="M0 0 C0.66 0.33 1.32 0.66 2 1 C-0.74559948 3.94897721 -3.34117274 6.26205705 -7 8 C-9.15625 7.57421875 -9.15625 7.57421875 -11 7 C-9.21475351 5.80286983 -7.4215972 4.61752721 -5.625 3.4375 C-4.62726563 2.77621094 -3.62953125 2.11492187 -2.6015625 1.43359375 C-1.74304688 0.96050781 -0.88453125 0.48742187 0 0 Z " fill="#89290B" transform="translate(348,357)"/>
<path d="M0 0 C1.98 0 3.96 0 6 0 C4.62845496 2.95409701 3.01136276 5.44008376 1 8 C0.67 5.36 0.34 2.72 0 0 Z " fill="#F7B314" transform="translate(200,243)"/>
<path d="M0 0 C1.32 0 2.64 0 4 0 C2.50902342 3.7952131 0.24299151 5.61042731 -3 8 C-3 6.68 -3 5.36 -3 4 C-2.34 3.67 -1.68 3.34 -1 3 C-0.67 2.01 -0.34 1.02 0 0 Z " fill="#41766B" transform="translate(102,139)"/>
<path d="M0 0 C0.66 0.33 1.32 0.66 2 1 C-1.49087093 5.0042343 -3.64951939 6.62671065 -9 7 C-6.3765992 4.08511023 -3.28183606 2.11496102 0 0 Z " fill="#44746B" transform="translate(374,399)"/>
<path d="M0 0 C0.66 0 1.32 0 2 0 C1.67 0.99 1.34 1.98 1 3 C0.34 3 -0.32 3 -1 3 C-1.33 4.32 -1.66 5.64 -2 7 C-3.65 7.33 -5.3 7.66 -7 8 C-6.02133662 6.85373678 -5.04205413 5.70800212 -4.0625 4.5625 C-3.51722656 3.92441406 -2.97195313 3.28632813 -2.41015625 2.62890625 C-1.63204305 1.73008851 -0.84063472 0.84063472 0 0 Z " fill="#40756B" transform="translate(413,365)"/>
<path d="M0 0 C1.32 0.66 2.64 1.32 4 2 C2.02 4.97 2.02 4.97 0 8 C-2 5 -2 5 -2 3 C-1.01 3 -0.02 3 1 3 C0.67 2.01 0.34 1.02 0 0 Z " fill="#8A2C09" transform="translate(404,331)"/>
<path d="M0 0 C0.66 1.32 1.32 2.64 2 4 C-0.40921705 6.40921705 -2.94334509 7.53812156 -6 9 C-4.47291037 5.56404834 -2.40072955 2.88087546 0 0 Z " fill="#8A2C0A" transform="translate(380,327)"/>
<path d="M0 0 C1.39195915 4.17587745 -0.17676781 6.13474776 -2 10 C-2.89130413 7.3260876 -3.47731534 4.76276177 -4 2 C-2.68 1.34 -1.36 0.68 0 0 Z " fill="#912C0A" transform="translate(423,298)"/>
<path d="M0 0 C0 2 0 2 -1.5625 3.625 C-4.80680433 5.45512039 -7.33724439 5.21131282 -11 5 C-8.12934225 2.12934225 -4.13678472 0 0 0 Z " fill="#8A2B0A" transform="translate(333,367)"/>
<path d="M0 0 C0.66 1.32 1.32 2.64 2 4 C-2.5 5.5 -2.5 5.5 -7 7 C-4.66666667 4.66666667 -2.33333333 2.33333333 0 0 Z " fill="#8B2A06" transform="translate(364,345)"/>
<path d="M0 0 C1.18414294 3.55242882 0.69535532 4.69830562 -0.4375 8.1875 C-0.72496094 9.08855469 -1.01242187 9.98960937 -1.30859375 10.91796875 C-1.53675781 11.60503906 -1.76492188 12.29210937 -2 13 C-2.33 13 -2.66 13 -3 13 C-3.33 10.69 -3.66 8.38 -4 6 C-3.01 6 -2.02 6 -1 6 C-0.67 4.02 -0.34 2.04 0 0 Z " fill="#C34F33" transform="translate(380,276)"/>
<path d="M0 0 C0.66 0.99 1.32 1.98 2 3 C1.0465616 6.46704871 -0.28676594 8.6567524 -3 11 C-2.44894091 7.0507432 -1.61064629 3.65079826 0 0 Z " fill="#46796D" transform="translate(42,192)"/>
<path d="M0 0 C0.33 0 0.66 0 1 0 C0.67 3.63 0.34 7.26 0 11 C-0.33 11 -0.66 11 -1 11 C-1 9.35 -1 7.7 -1 6 C-1.66 5.67 -2.32 5.34 -3 5 C-2.67 4.01 -2.34 3.02 -2 2 C-1.34 2 -0.68 2 0 2 C0 1.34 0 0.68 0 0 Z " fill="#C74E32" transform="translate(382,264)"/>
<path d="M0 0 C0.66666667 2.66666667 1.33333333 5.33333333 2 8 C1.34 8 0.68 8 0 8 C-0.99 8.99 -1.98 9.98 -3 11 C-2.01 7.37 -1.02 3.74 0 0 Z " fill="#C25130" transform="translate(130,230)"/>
<path d="M0 0 C0.66 1.32 1.32 2.64 2 4 C0.35 5.32 -1.3 6.64 -3 8 C-3 6.35 -3 4.7 -3 3 C-2.34 3 -1.68 3 -1 3 C-0.67 2.01 -0.34 1.02 0 0 Z " fill="#8E2E0B" transform="translate(388,353)"/>
<path d="M0 0 C0 3 0 3 -2.375 5.6875 C-5 8 -5 8 -7 8 C-7 7.34 -7 6.68 -7 6 C-6.34 6 -5.68 6 -5 6 C-4.67 5.01 -4.34 4.02 -4 3 C-3.34 3 -2.68 3 -2 3 C-2 2.34 -2 1.68 -2 1 C-1.34 0.67 -0.68 0.34 0 0 Z " fill="#7B2608" transform="translate(126,153)"/>
<path d="M0 0 C0 0.99 0 1.98 0 3 C-0.99 3.33 -1.98 3.66 -3 4 C-3 4.66 -3 5.32 -3 6 C-4.32 5.34 -5.64 4.68 -7 4 C-4.69 2.68 -2.38 1.36 0 0 Z " fill="#C44D2D" transform="translate(322,319)"/>
</svg>
