<?xml version="1.0" encoding="UTF-8"?>
<svg version="1.1" xmlns="http://www.w3.org/2000/svg" width="500" height="500">
<path d="M0 0 C6.44424969 6.24146211 7.60246983 15.16767791 7.796875 23.75390625 C7.80460937 25.29884766 7.80460937 25.29884766 7.8125 26.875 C7.83809686 28.96626321 7.87165966 31.05744754 7.9140625 33.1484375 C7.92002441 34.05770996 7.92598633 34.96698242 7.93212891 35.90380859 C8.21138474 38.74282057 9.01331747 40.91306532 10.1875 43.5 C14.72447545 38.96302455 13.44644566 31.63022661 13.5 25.625 C13.52900391 24.54863281 13.55800781 23.47226563 13.58789062 22.36328125 C13.63993874 15.86927837 13.12344625 12.61432528 9.1875 7.5 C9.3515625 5.4440918 9.3515625 5.4440918 10.1875 3.5 C12.81684681 2.28485554 15.26300358 1.32588642 18 0.4375 C22.60377996 -1.10527782 26.35481568 -2.43385255 30.1875 -5.5 C32.9375 -5.6875 32.9375 -5.6875 35.1875 -5.5 C36.1775 -2.53 37.1675 0.44 38.1875 3.5 C39.198125 2.571875 40.20875 1.64375 41.25 0.6875 C47.02380003 -4.19713483 52.29172987 -6.07062219 59.82421875 -5.7734375 C63.31027019 -5.37009271 65.38202957 -4.63750128 68.1875 -2.5 C73.15568367 4.87008129 72.78855089 12.4837298 72.8125 21.0625 C72.82895486 23.14815328 72.85120756 25.23337212 72.88412476 27.3188324 C72.91243683 29.20793464 72.92282886 31.09728077 72.93212891 32.98657227 C73.27584503 37.7154621 73.75008924 42.06258924 77.1875 45.5 C77.375 48.0625 77.375 48.0625 77.1875 50.5 C74.63916146 53.04833854 67.73563119 51.78302413 64.3125 51.8125 C62.63994141 51.85600586 62.63994141 51.85600586 60.93359375 51.90039062 C59.86496094 51.90876953 58.79632813 51.91714844 57.6953125 51.92578125 C56.71191895 51.94036377 55.72852539 51.95494629 54.71533203 51.9699707 C52.1875 51.5 52.1875 51.5 50.37084961 49.92651367 C48.75384931 46.61077899 48.78438827 43.93361219 48.74609375 40.25 C48.72628197 39.20730957 48.72628197 39.20730957 48.70606995 38.14355469 C48.66528345 35.92899544 48.64353732 33.71484906 48.625 31.5 C48.60116766 29.28527759 48.57297826 27.07094147 48.53321838 24.85644531 C48.4978062 22.84716389 48.47787954 20.83762731 48.45874023 18.828125 C48.20885272 15.76199844 47.81136828 14.06132174 46.1875 11.5 C43.77104218 11.33312552 43.77104218 11.33312552 41.1875 11.5 C36.81791456 15.86958544 37.96772682 22.57900687 37.9375 28.375 C37.916875 29.35597656 37.89625 30.33695312 37.875 31.34765625 C37.84492143 36.91971112 38.23234354 40.61321783 41.1875 45.5 C41.4375 48.3125 41.4375 48.3125 41.1875 50.5 C39.51014516 52.17735484 37.45010311 51.63603961 35.14868164 51.64526367 C34.07409195 51.65164352 32.99950226 51.65802338 31.89234924 51.66459656 C30.13772621 51.66626579 30.13772621 51.66626579 28.34765625 51.66796875 C27.15522812 51.67129715 25.96279999 51.67462555 24.73423767 51.67805481 C22.20637397 51.68312916 19.67850355 51.68546298 17.15063477 51.68530273 C13.27023346 51.6874886 9.39011654 51.70563757 5.50976562 51.72460938 C3.05989681 51.72754323 0.61002664 51.72952808 -1.83984375 51.73046875 C-3.59143044 51.74124702 -3.59143044 51.74124702 -5.37840271 51.75224304 C-6.99501549 51.7476281 -6.99501549 51.7476281 -8.64428711 51.74291992 C-10.07205727 51.74505745 -10.07205727 51.74505745 -11.52867126 51.74723816 C-13.8125 51.5 -13.8125 51.5 -15.8125 49.5 C-16.4375 47.375 -16.4375 47.375 -16.8125 45.5 C-19.14576602 46.37497476 -21.39154739 47.25047606 -23.5390625 48.5234375 C-29.19621608 51.8059834 -34.33707865 52.48022433 -40.8125 51.5 C-45.39361871 49.29124634 -47.56333048 46.99833904 -49.8125 42.5 C-50.73000694 36.52855902 -50.84079012 30.37112268 -47.8125 25 C-42.63443626 18.38593164 -35.32593586 15.69619721 -27.5 13.375 C-25.9179834 12.90180182 -24.33841179 12.42033209 -22.76171875 11.9296875 C-22.07424561 11.72585449 -21.38677246 11.52202148 -20.6784668 11.31201172 C-18.54572609 10.38390815 -17.34653209 9.22679474 -15.8125 7.5 C-16.3075 6.015 -16.3075 6.015 -16.8125 4.5 C-19.71545805 3.04852097 -21.58511779 3.12760975 -24.8125 3.5 C-28.18137866 5.85821506 -30.39631893 7.97365335 -32.9375 11.1875 C-34.87339745 13.57510686 -35.88252596 14.63824293 -38.8125 15.5 C-42.26061478 15.35926062 -44.125905 15.0980021 -46.75 12.8125 C-48.23653714 9.57709564 -47.84728364 7.88029323 -46.8125 4.5 C-43.82432832 -0.72930044 -39.30549726 -2.61033484 -33.8125 -4.5 C-22.76222932 -7.35168276 -9.39635699 -6.83012504 0 0 Z M-22.9375 22.4375 C-23.64132812 22.98277344 -24.34515625 23.52804688 -25.0703125 24.08984375 C-26.73155947 25.38414315 -26.73155947 25.38414315 -27.8125 26.5 C-28.46903373 31.96608944 -28.46903373 31.96608944 -26.125 36.5625 C-23.15124989 37.76807437 -21.79939164 37.64880448 -18.8125 36.5 C-16.36267964 34.05601255 -15.83567084 32.75580608 -15.51953125 29.265625 C-15.55433594 28.10546875 -15.58914063 26.9453125 -15.625 25.75 C-15.65207031 24.57953125 -15.67914063 23.4090625 -15.70703125 22.203125 C-15.75923828 20.86507812 -15.75923828 20.86507812 -15.8125 19.5 C-19.39615796 19.5 -20.17895071 20.27443091 -22.9375 22.4375 Z " fill="#0496B0" transform="translate(358.8125,229.5)"/>
<path d="M0 0 C2.5625 0.1875 2.5625 0.1875 4.5625 2.1875 C4.82751465 4.81732178 4.82751465 4.81732178 4.84960938 8.19433594 C4.86302368 9.45614685 4.87643799 10.71795776 4.89025879 12.01800537 C4.89282181 12.69453911 4.89538483 13.37107285 4.89802551 14.0681076 C4.90630996 16.18721115 4.92681286 18.30588272 4.95056152 20.42486572 C4.9988384 24.92901298 5.0317061 29.43320379 5.0625 33.9375 C5.09821587 39.14395731 5.1402969 44.35020595 5.19844055 49.55646515 C5.2184255 51.63807504 5.22681383 53.71952293 5.23474121 55.8012085 C5.24815552 57.07562805 5.26156982 58.35004761 5.27539062 59.66308594 C5.28268188 60.78068298 5.28997314 61.89828003 5.29748535 63.04974365 C5.57758114 66.36605968 6.38696049 69.08455789 7.5625 72.1875 C8.2225 71.8575 8.8825 71.5275 9.5625 71.1875 C11.3288672 65.88839841 10.78960647 60.23345761 10.8125 54.6875 C10.833125 53.43839844 10.85375 52.18929687 10.875 50.90234375 C10.88015625 49.70738281 10.8853125 48.51242188 10.890625 47.28125 C10.8999707 46.18490234 10.90931641 45.08855469 10.91894531 43.95898438 C10.51538496 40.82116444 9.90552986 40.16552004 7.5625 38.1875 C7.0625 35.6875 7.0625 35.6875 7.5625 33.1875 C11.71731325 30.27392791 16.16884137 28.8386485 20.94140625 27.25 C23.54601535 26.1941823 25.34798781 24.88513461 27.5625 23.1875 C30.1875 22.8125 30.1875 22.8125 32.5625 23.1875 C35.1713299 27.10074485 34.85949076 30.44353912 34.87109375 34.984375 C34.89626386 36.76562813 34.92166173 38.54687805 34.94726562 40.328125 C34.97594326 43.13019912 34.99996449 45.93221729 35.01879883 48.734375 C35.04055781 51.44300914 35.08001515 54.15097476 35.12109375 56.859375 C35.12126747 58.10349152 35.12126747 58.10349152 35.1214447 59.3727417 C35.21188627 64.7334106 36.19324394 68.3768355 38.5625 73.1875 C39.375 76 39.375 76 39.5625 78.1875 C36.98910563 80.76089437 35.98680389 80.44479049 32.41015625 80.4621582 C31.33564209 80.47169022 30.26112793 80.48122223 29.15405273 80.49104309 C27.98946533 80.49013168 26.82487793 80.48922028 25.625 80.48828125 C24.43398682 80.49256638 23.24297363 80.4968515 22.01586914 80.50126648 C19.49398434 80.50701775 16.97208295 80.50750421 14.45019531 80.50317383 C10.5784902 80.50001305 6.70754808 80.52346716 2.8359375 80.54882812 C0.39062597 80.55110083 -2.05468763 80.55180475 -4.5 80.55078125 C-5.6645874 80.559991 -6.8291748 80.56920074 -8.02905273 80.57868958 C-9.64082397 80.56934639 -9.64082397 80.56934639 -11.28515625 80.55981445 C-12.7084021 80.56075859 -12.7084021 80.56075859 -14.16040039 80.5617218 C-14.91184326 80.43822861 -15.66328613 80.31473541 -16.4375 80.1875 C-18.5894437 76.95958445 -18.63836443 75.90349191 -18.4375 72.1875 C-19.0975 72.1875 -19.7575 72.1875 -20.4375 72.1875 C-20.7159375 73.05375 -20.7159375 73.05375 -21 73.9375 C-23.14960447 77.3020983 -25.73544204 78.93213087 -29.4375 80.1875 C-34.92247955 80.93072216 -40.40871388 81.14192046 -45.4375 78.5625 C-50.87470377 74.25804702 -52.82610359 69.81212967 -54.4375 63.1875 C-55.433653 51.22072692 -54.20951003 41.0673271 -47.18359375 31.16796875 C-43.54563042 27.04168819 -38.89282786 24.10939338 -33.4375 23.1875 C-30.84376086 23.11851758 -28.27939803 23.09315248 -25.6875 23.125 C-24.99011719 23.12951172 -24.29273438 23.13402344 -23.57421875 23.13867188 C-21.86194197 23.1503998 -20.14970967 23.16833347 -18.4375 23.1875 C-20.31452327 18.29187307 -20.31452327 18.29187307 -23.4375 14.1875 C-23.0625 11.5625 -23.0625 11.5625 -22.4375 9.1875 C-21.90382812 9.02894531 -21.37015625 8.87039062 -20.8203125 8.70703125 C-14.19587644 6.63259712 -6.44658193 0.49589092 0 0 Z M-26.4375 31.1875 C-30.8813412 35.97317514 -30.64433198 41.25682533 -30.6875 47.5 C-30.708125 48.23412109 -30.72875 48.96824219 -30.75 49.72460938 C-30.78701278 54.93878414 -29.95623926 58.590652 -27.4375 63.1875 C-24.86017086 64.23917527 -24.86017086 64.23917527 -22.4375 64.1875 C-17.57056238 56.78129057 -17.57307301 48.35636535 -18.78125 39.734375 C-19.56806765 36.19369558 -20.27649452 33.21054351 -23.4375 31.1875 C-24.4275 31.1875 -25.4175 31.1875 -26.4375 31.1875 Z " fill="#0296B1" transform="translate(270.4375,200.8125)"/>
<path d="M0 0 C1.16321777 -0.01023193 2.32643555 -0.02046387 3.52490234 -0.03100586 C4.6227002 -0.01948486 5.72049805 -0.00796387 6.8515625 0.00390625 C8.337771 0.01852905 8.337771 0.01852905 9.85400391 0.03344727 C12.78259952 0.50282803 13.62619979 1.08891462 15.375 3.4375 C16.76171875 6.546875 16.76171875 6.546875 18.0625 10.1875 C18.49949219 11.37859375 18.93648437 12.5696875 19.38671875 13.796875 C20.40099284 17.53325228 20.63147718 20.58550306 20.375 24.4375 C19.375 25.4375 19.375 25.4375 16.25 25.5 C10.96344593 24.6875173 8.47484351 20.43268665 5.375 16.4375 C2.41249172 12.77334502 0.46972906 11.14837024 -4.125 10.375 C-7.42980386 10.18834995 -8.49675166 10.36779981 -11.5 12 C-19.46830068 21.1401096 -18.20330247 33.45230446 -17.81738281 44.84667969 C-17.45500364 49.72684189 -16.27111786 54.2957503 -13.625 58.4375 C-9.96846173 60.87519218 -7.93499899 60.67694439 -3.625 60.4375 C-1.34723845 58.15973845 -2.37863935 53.31155941 -2.36743164 50.23486328 C-2.43517794 45.11666106 -3.21447674 41.8728628 -5.625 37.4375 C-6.3125 34.5 -6.3125 34.5 -6.625 32.4375 C-3.17139557 30.13509705 -1.82000616 30.18058223 2.25 30.171875 C3.39984375 30.16929687 4.5496875 30.16671875 5.734375 30.1640625 C7.53648438 30.17566406 7.53648438 30.17566406 9.375 30.1875 C10.57640625 30.17976563 11.7778125 30.17203125 13.015625 30.1640625 C14.74039063 30.16792969 14.74039063 30.16792969 16.5 30.171875 C18.08167969 30.17525879 18.08167969 30.17525879 19.6953125 30.17871094 C22.375 30.4375 22.375 30.4375 25.375 32.4375 C25.88837677 35.60332342 25.64400838 37.02593079 23.87915039 39.72607422 C22.11986451 42.89741475 21.98005555 44.90271086 21.93359375 48.5078125 C21.90716797 49.65121094 21.88074219 50.79460937 21.85351562 51.97265625 C21.83321289 53.74962891 21.83321289 53.74962891 21.8125 55.5625 C21.77810183 57.9194115 21.73551863 60.27622198 21.68359375 62.6328125 C21.67126709 63.67453613 21.65894043 64.71625977 21.64624023 65.78955078 C21.375 68.4375 21.375 68.4375 19.375 71.4375 C16.73527681 71.75520358 14.33478366 71.88154316 11.69140625 71.87109375 C10.92126694 71.8763356 10.15112762 71.88157745 9.35765076 71.88697815 C7.72094934 71.89341222 6.08420177 71.89204347 4.44750977 71.88354492 C1.97780179 71.8751372 -0.48951139 71.90360443 -2.95898438 71.93554688 C-15.3257288 71.99225638 -25.41419523 70.64478761 -34.68359375 61.70703125 C-41.31336178 53.95673905 -44.17029594 43.92278634 -43.87109375 33.8203125 C-42.7806035 23.26159742 -38.55061737 15.06572423 -31.0625 7.625 C-21.75678639 0.20114684 -11.42138954 0.08032249 0 0 Z " fill="#0496B0" transform="translate(77.625,209.5625)"/>
<path d="M0 0 C5.31380896 4.52443879 8.58205903 9.31204008 9.21508789 16.41259766 C9.34928802 19.23360156 9.43574471 22.05154713 9.5 24.875 C9.60686466 36.48529203 9.60686466 36.48529203 14 47 C14.1875 49.625 14.1875 49.625 14 52 C12.28915499 53.71084501 10.05639907 53.13014689 7.72265625 53.1328125 C6.65208984 53.13410156 5.58152344 53.13539063 4.47851562 53.13671875 C3.35123047 53.13285156 2.22394531 53.12898438 1.0625 53.125 C-0.06091797 53.12886719 -1.18433594 53.13273437 -2.34179688 53.13671875 C-3.41365234 53.13542969 -4.48550781 53.13414062 -5.58984375 53.1328125 C-6.57847412 53.13168457 -7.56710449 53.13055664 -8.58569336 53.12939453 C-11 53 -11 53 -13 52 C-13.625 48.9375 -13.625 48.9375 -14 46 C-14.89460938 46.5053125 -15.78921875 47.010625 -16.7109375 47.53125 C-29.84742344 54.69263018 -29.84742344 54.69263018 -38 53 C-42.18145284 51.27287818 -44.42475328 48.67892389 -47 45 C-48.84152373 39.47542882 -48.8169855 34.08994339 -46.375 28.75 C-40.58098217 18.57513942 -29.27794836 15.91726726 -18.72265625 12.9296875 C-15.89294506 12.18672719 -15.89294506 12.18672719 -14 10 C-13.83312552 7.41645782 -13.83312552 7.41645782 -14 5 C-15.2375 4.95875 -16.475 4.9175 -17.75 4.875 C-18.44609375 4.85179687 -19.1421875 4.82859375 -19.859375 4.8046875 C-23.38924763 5.12675617 -25.36502549 6.34454244 -27.81640625 8.875 C-28.68072266 9.926875 -28.68072266 9.926875 -29.5625 11 C-31.67356316 13.55772463 -33.19970251 15.133135 -36 17 C-42.45283019 16.54716981 -42.45283019 16.54716981 -45 14 C-45.52118289 10.67745908 -45.58812062 8.19617754 -44.078125 5.125 C-35.07748441 -7.15822715 -12.18574321 -7.27082678 0 0 Z M-25 27 C-26.65153759 30.4674714 -26.65153759 30.4674714 -26 34 C-24.0405988 37.1264113 -24.0405988 37.1264113 -21 39 C-18.33333333 39.33333333 -18.33333333 39.33333333 -16 38 C-13.11277371 34.16184954 -12.65596232 31.43580957 -12.8125 26.6875 C-12.83957031 25.61886719 -12.86664063 24.55023438 -12.89453125 23.44921875 C-12.92933594 22.64097656 -12.96414062 21.83273438 -13 21 C-17.90441893 21 -21.42355698 23.78964957 -25 27 Z " fill="#0396B0" transform="translate(203,228)"/>
<path d="M0 0 C2.5625 0.1875 2.5625 0.1875 4.5625 2.1875 C4.96014263 4.17571313 5.30025349 6.17694339 5.5625 8.1875 C6.26375 7.424375 6.965 6.66125 7.6875 5.875 C12.11182252 1.73922025 15.5876397 0.01852268 21.625 -0.1875 C25.68761607 -0.03454006 28.57322864 0.19822864 31.5625 3.1875 C33.39679431 8.91966973 32.14190546 13.90586026 29.5625 19.1875 C28.06640625 20.95703125 28.06640625 20.95703125 26.5625 22.1875 C23.55618849 22.08383409 22.15198672 20.89300134 19.6875 19.125 C16.20544274 16.9661245 14.5716226 16.74204193 10.5625 17.1875 C9.5725 17.5175 8.5825 17.8475 7.5625 18.1875 C5.51722228 23.4621636 5.36096293 28.63540796 5.3125 34.25 C5.30323486 34.92232666 5.29396973 35.59465332 5.28442383 36.28735352 C5.31805824 41.68402865 5.6051776 47.2301776 9.5625 51.1875 C9.00694444 55.74305556 9.00694444 55.74305556 7.5625 57.1875 C5.42896826 57.28753289 3.29212458 57.31831048 1.15625 57.3203125 C-0.14441406 57.32160156 -1.44507813 57.32289063 -2.78515625 57.32421875 C-3.46594238 57.32212402 -4.14672852 57.3200293 -4.84814453 57.31787109 C-6.92878515 57.3125224 -9.00920989 57.3178168 -11.08984375 57.32421875 C-13.04083984 57.32228516 -13.04083984 57.32228516 -15.03125 57.3203125 C-16.23458984 57.31918457 -17.43792969 57.31805664 -18.67773438 57.31689453 C-21.4375 57.1875 -21.4375 57.1875 -22.4375 56.1875 C-21.84669067 49.92492109 -21.84669067 49.92492109 -20.41333008 47.34179688 C-18.26861999 42.60701534 -19.11168532 36.79501165 -19.125 31.6875 C-19.10888672 30.45128906 -19.09277344 29.21507812 -19.07617188 27.94140625 C-19.07552734 26.75417969 -19.07488281 25.56695312 -19.07421875 24.34375 C-19.07123779 23.25900391 -19.06825684 22.17425781 -19.06518555 21.05664062 C-19.48220939 17.84295921 -20.393595 16.62450232 -22.4375 14.1875 C-22.625 11.625 -22.625 11.625 -21.4375 9.1875 C-18 7.6875 -18 7.6875 -15.84375 7.0078125 C-10.66547009 5.2424898 -5.18998756 0.39922981 0 0 Z " fill="#0396B1" transform="translate(123.4375,223.8125)"/>
<path d="M0 0 C1.875 0.25 1.875 0.25 4 1 C5.79894306 3.8783089 6.32915092 6.39704373 6.625 9.75 C6.69976562 10.54921875 6.77453125 11.3484375 6.8515625 12.171875 C6.92503906 13.07679688 6.92503906 13.07679688 7 14 C7.804375 14.2475 8.60875 14.495 9.4375 14.75 C12 16 12 16 13 17.9375 C13 20 13 20 11.8125 21.75 C10 23 10 23 6 23 C6.01945375 27.60901301 6.07126712 32.21612544 6.15258789 36.82446289 C6.17572882 38.39076369 6.19015448 39.95721922 6.19555664 41.52368164 C6.20487588 43.78108703 6.24592233 46.03607221 6.29296875 48.29296875 C6.2890361 48.98899704 6.28510345 49.68502533 6.28105164 50.40214539 C6.39866113 54.3556153 6.85219722 55.83583309 9.5402832 58.8215332 C10.35198975 59.54042725 11.16369629 60.25932129 12 61 C12.08286521 64.39747355 11.2917737 65.64987156 9.125 68.25 C4.48836186 72.06840788 -1.28977939 71.45279282 -7 71 C-11.63486514 69.22494527 -13.57112671 66.25052826 -16 62 C-17.26293293 58.32198481 -17.14203824 54.68158058 -17.17578125 50.8203125 C-17.1989789 49.4023289 -17.22309622 47.98436009 -17.24804688 46.56640625 C-17.28311996 44.3457647 -17.31249595 42.12566978 -17.32592773 39.90478516 C-17.34147964 37.7509662 -17.3817221 35.5987131 -17.42578125 33.4453125 C-17.44036377 32.16156738 -17.45494629 30.87782227 -17.4699707 29.55517578 C-18.08249369 25.44667292 -19.58573599 23.32231018 -22 20 C-22.04296875 17.25 -22.04296875 17.25 -21 15 C-18.92578125 13.8125 -18.92578125 13.8125 -16.3125 13 C-8.94545751 10.37640937 -4.79523415 6.06456084 0 0 Z " fill="#0197B2" transform="translate(455,210)"/>
<path d="M0 0 C2.32915776 1.8812428 2.90127894 3.41761577 3.625 6.3125 C3.4112299 11.33609727 1.81745565 14.46518166 -1.375 18.3125 C-6.66436241 22.85670974 -12.38390425 24.77619513 -19.375 24.3125 C-22.6749633 23.08391654 -23.3390329 22.36645065 -25.375 19.3125 C-25.82849362 14.43744353 -24.85896211 10.34335682 -21.8125 6.5 C-15.70977293 0.23705814 -8.61840326 -2.49480094 0 0 Z " fill="#0396B1" transform="translate(302.375,201.6875)"/>
<path d="M0 0 C0.66 0.33 1.32 0.66 2 1 C2.5277401 4.06269684 2.83132313 7.12329536 3.14453125 10.21484375 C3.42683594 11.13394531 3.70914062 12.05304688 4 13 C6.45003341 14.31777442 6.45003341 14.31777442 9 15 C10 16.9375 10 16.9375 10 19 C8.8125 20.75 8.8125 20.75 7 22 C5.68 22 4.36 22 3 22 C3.01945375 26.60901301 3.07126712 31.21612544 3.15258789 35.82446289 C3.17572882 37.39076369 3.19015448 38.95721922 3.19555664 40.52368164 C3.20487588 42.78108703 3.24592233 45.03607221 3.29296875 47.29296875 C3.2890361 47.98899704 3.28510345 48.68502533 3.28105164 49.40214539 C3.39866113 53.3556153 3.85219722 54.83583309 6.5402832 57.8215332 C7.35198975 58.54042725 8.16369629 59.25932129 9 60 C9.08286521 63.39747355 8.2917737 64.64987156 6.125 67.25 C1.48836186 71.06840788 -4.28977939 70.45279282 -10 70 C-14.59437389 68.24045255 -16.7143818 65.30751123 -19 61 C-18.75 58.625 -18.75 58.625 -18 57 C-17.34 58.32 -16.68 59.64 -16 61 C-15.34 61 -14.68 61 -14 61 C-14 61.99 -14 62.98 -14 64 C-12.02 63.505 -12.02 63.505 -10 63 C-10.66 64.65 -11.32 66.3 -12 68 C-7.38 68 -2.76 68 2 68 C2 67.01 2 66.02 2 65 C3.485 64.505 3.485 64.505 5 64 C4.34 63.01 3.68 62.02 3 61 C3.33 60.01 3.66 59.02 4 58 C3.34 58 2.68 58 2 58 C0.82524756 54.47574267 0.81924874 51.26283054 0.796875 47.59375 C0.79117493 46.87264038 0.78547485 46.15153076 0.77960205 45.40856934 C0.7701669 43.88551292 0.76362397 42.36243622 0.75976562 40.83935547 C0.75003519 38.50842944 0.71898957 36.17837635 0.6875 33.84765625 C0.68097196 32.36719273 0.67572071 30.88672292 0.671875 29.40625 C0.6595282 28.7093103 0.6471814 28.01237061 0.63446045 27.29431152 C0.64765546 24.43303055 0.66120726 22.48299683 2.33300781 20.09960938 C4 19 4 19 7 18 C7 17.34 7 16.68 7 16 C5.68 16 4.36 16 3 16 C3 15.34 3 14.68 3 14 C2.34 14 1.68 14 1 14 C0.67 9.38 0.34 4.76 0 0 Z " fill="#1390A7" transform="translate(458,211)"/>
<path d="M0 0 C1.14984375 -0.00257813 2.2996875 -0.00515625 3.484375 -0.0078125 C5.28648438 0.00378906 5.28648438 0.00378906 7.125 0.015625 C8.32640625 0.00789062 9.5278125 0.00015625 10.765625 -0.0078125 C12.49039063 -0.00394531 12.49039063 -0.00394531 14.25 0 C15.83167969 0.00338379 15.83167969 0.00338379 17.4453125 0.00683594 C20.125 0.265625 20.125 0.265625 23.125 2.265625 C23.5625 4.578125 23.5625 4.578125 23.125 7.265625 C21.125 10.078125 21.125 10.078125 19.125 12.265625 C19.125 10.285625 19.125 8.305625 19.125 6.265625 C19.785 6.265625 20.445 6.265625 21.125 6.265625 C21.125 5.605625 21.125 4.945625 21.125 4.265625 C19.475 4.925625 17.825 5.585625 16.125 6.265625 C15.795 5.275625 15.465 4.285625 15.125 3.265625 C14.279375 3.45125 13.43375 3.636875 12.5625 3.828125 C8.8476718 4.30092132 5.79525727 3.92627131 2.125 3.265625 C-1.45517078 9.45216011 -2.50506864 14.16786888 -2.625 21.265625 C-2.65464844 22.13574219 -2.68429688 23.00585938 -2.71484375 23.90234375 C-2.78475408 26.02295716 -2.83223116 28.14429063 -2.875 30.265625 C-3.865 30.265625 -4.855 30.265625 -5.875 30.265625 C-5.545 29.935625 -5.215 29.605625 -4.875 29.265625 C-4.36358378 21.37801331 -4.03673856 14.32802606 -7.875 7.265625 C-8.5625 4.328125 -8.5625 4.328125 -8.875 2.265625 C-5.42139557 -0.03677795 -4.07000616 0.00870723 0 0 Z " fill="#1492A9" transform="translate(79.875,239.734375)"/>
<path d="M0 0 C0 0.33 0 0.66 0 1 C-7.42857143 3.14285714 -7.42857143 3.14285714 -11 4 C-11 6.64 -11 9.28 -11 12 C-9.7934375 11.7215625 -9.7934375 11.7215625 -8.5625 11.4375 C-7.2940625 11.2209375 -7.2940625 11.2209375 -6 11 C-5.67 11.33 -5.34 11.66 -5 12 C-2.8614515 9.8614515 -2.57344937 8.86724686 -2 6 C0.99480917 5.1276588 3.63575911 4.89170234 6.75 4.9375 C7.54921875 4.94652344 8.3484375 4.95554688 9.171875 4.96484375 C9.77515625 4.97644531 10.3784375 4.98804688 11 5 C11 5.33 11 5.66 11 6 C9.845 6.144375 8.69 6.28875 7.5 6.4375 C2.37908337 7.66325132 0.01675116 10.88777125 -3.140625 14.90625 C-5.03262032 17.03673213 -6.34144465 18.03421742 -9 19 C-12.44811478 18.85926062 -14.313405 18.5980021 -16.9375 16.3125 C-18.42403714 13.07709564 -18.03478364 11.38029323 -17 8 C-14.36054992 3.38096236 -10.90455757 1.70375699 -6.21875 -0.3984375 C-3.72500105 -1.07455957 -2.40943372 -0.8433018 0 0 Z " fill="#1391A8" transform="translate(329,226)"/>
<path d="M0 0 C0.66 0 1.32 0 2 0 C3.21380846 5.34075724 3.21380846 5.34075724 2.25 8.3125 C1 10 1 10 -2 11 C-4.1875 10.5625 -4.1875 10.5625 -6 10 C-6 11.65 -6 13.3 -6 15 C-3.36 14.67 -0.72 14.34 2 14 C2 18.95 2 23.9 2 29 C1.34 29 0.68 29 0 29 C0.33 24.38 0.66 19.76 1 15 C-4.445 17.475 -4.445 17.475 -10 20 C-11 14.25 -11 14.25 -11 12 C-12.98 12 -14.96 12 -17 12 C-17.33 12.66 -17.66 13.32 -18 14 C-22.3174404 17.85069009 -22.3174404 17.85069009 -25 18.4375 C-28.16100379 19.32653232 -29.82272959 21.64129039 -32 24 C-30.64089912 19.24314694 -28.04321659 16.64900397 -24 14 C-17.9223851 10.66711441 -11.36422782 8.80952413 -4.72265625 6.9296875 C-1.89294506 6.18672719 -1.89294506 6.18672719 0 4 C0 2.68 0 1.36 0 0 Z " fill="#1991A9" transform="translate(189,234)"/>
<path d="M0 0 C0.69738281 0.00451172 1.39476562 0.00902344 2.11328125 0.01367188 C3.82555803 0.0253998 5.53779033 0.04333347 7.25 0.0625 C5.27 1.0525 5.27 1.0525 3.25 2.0625 C3.58 4.3725 3.91 6.6825 4.25 9.0625 C2.6 9.0625 0.95 9.0625 -0.75 9.0625 C-3.96314861 15.14302532 -4.11875119 20.20075664 -3.9375 27 C-3.92396484 27.97001953 -3.91042969 28.94003906 -3.89648438 29.93945312 C-3.86138677 32.31439129 -3.81222275 34.68814378 -3.75 37.0625 C-5.98413013 33.71130481 -5.98847762 32.6447245 -5.9453125 28.73828125 C-5.93886719 27.71025391 -5.93242187 26.68222656 -5.92578125 25.62304688 C-5.90902344 24.55119141 -5.89226562 23.47933594 -5.875 22.375 C-5.86597656 21.29154297 -5.85695312 20.20808594 -5.84765625 19.09179688 C-5.8240734 16.4151429 -5.79116126 13.73893203 -5.75 11.0625 C-5.09 11.0625 -4.43 11.0625 -3.75 11.0625 C-5.235 8.0925 -5.235 8.0925 -6.75 5.0625 C-7.3275 5.248125 -7.905 5.43375 -8.5 5.625 C-11.72840638 6.25274568 -13.85485623 5.51007189 -16.75 4.0625 C-10.99045847 0.38279291 -6.77196165 -0.08320936 0 0 Z " fill="#0896AE" transform="translate(244.75,223.9375)"/>
<path d="M0 0 C3.62820355 2.76434556 5.28226656 5.72363516 6.625 10 C7.22303642 15.18469657 7.27915941 20.35106292 7.3125 25.5625 C7.34177869 27.64806198 7.37653936 29.73342012 7.41499329 31.8188324 C7.44736031 33.70793837 7.46568519 35.59726979 7.4831543 37.48657227 C7.62704498 41.05065297 8.06082939 44.48005988 8.625 48 C7.965 48 7.305 48 6.625 48 C4.0298041 41.1237526 4.40089001 34.33183682 4.5 27.0625 C4.50902344 25.80630859 4.51804687 24.55011719 4.52734375 23.25585938 C4.55080751 20.17037478 4.58363799 17.08528795 4.625 14 C3.635 14 2.645 14 1.625 14 C1.56441406 13.37351563 1.50382812 12.74703125 1.44140625 12.1015625 C1.35761719 11.28429687 1.27382813 10.46703125 1.1875 9.625 C1.10628906 8.81289062 1.02507812 8.00078125 0.94140625 7.1640625 C0.73409886 4.95727195 0.73409886 4.95727195 -0.375 3 C-2.39963255 2.34786708 -2.39963255 2.34786708 -4.375 2 C-4.375 1.34 -4.375 0.68 -4.375 0 C-5.57125 0.515625 -6.7675 1.03125 -8 1.5625 C-11.81212261 3.01409117 -14.37378527 3.10033405 -18.375 2 C-13.6922408 -2.6827592 -5.92184324 -1.75462022 0 0 Z " fill="#1791A7" transform="translate(424.375,225)"/>
<path d="M0 0 C0.99 0.33 1.98 0.66 3 1 C2.154375 1.721875 1.30875 2.44375 0.4375 3.1875 C-2.34894155 5.73609463 -2.34894155 5.73609463 -1.8125 8.8125 C-1.544375 9.534375 -1.27625 10.25625 -1 11 C-2.0725 10.896875 -3.145 10.79375 -4.25 10.6875 C-8.14210148 10.59927598 -8.14210148 10.59927598 -10.4375 13.5 C-10.953125 14.325 -11.46875 15.15 -12 16 C-12 15.34 -12 14.68 -12 14 C-15.22804947 16.81152696 -16.6588327 18.67854758 -17 23 C-16.67 23.66 -16.34 24.32 -16 25 C-15.91350549 27.48099734 -15.88434946 29.93344928 -15.90234375 32.4140625 C-15.9037587 33.14370209 -15.90517365 33.87334167 -15.90663147 34.62509155 C-15.91223469 36.95843585 -15.92478765 39.29168464 -15.9375 41.625 C-15.94251459 43.20572778 -15.94707757 44.78645707 -15.95117188 46.3671875 C-15.96220516 50.24482854 -15.97947189 54.12239807 -16 58 C-16.33 58 -16.66 58 -17 58 C-17.0093457 57.0620459 -17.01869141 56.1240918 -17.02832031 55.15771484 C-17.07249438 51.65713676 -17.13417667 48.15775697 -17.20751953 44.65771484 C-17.23563782 43.14676062 -17.25689771 41.63566179 -17.27099609 40.12451172 C-17.29255449 37.94423897 -17.33926316 35.76568781 -17.390625 33.5859375 C-17.41157227 32.2767334 -17.43251953 30.9675293 -17.45410156 29.61865234 C-18.07900124 25.47631644 -19.56225047 23.34747512 -22 20 C-22.04296875 17.25 -22.04296875 17.25 -21 15 C-18.92578125 13.8125 -18.92578125 13.8125 -16.3125 13 C-8.94545751 10.37640937 -4.79523415 6.06456084 0 0 Z " fill="#1995AA" transform="translate(455,210)"/>
<path d="M0 0 C1 2 1 2 0.57421875 3.63671875 C-0.24615685 7.01309451 -0.18431123 10.35905968 -0.1875 13.8125 C-0.20586914 14.84213867 -0.20586914 14.84213867 -0.22460938 15.89257812 C-0.2378821 20.56900306 0.40791626 24.54775177 2 29 C2.66 29.66 3.32 30.32 4 31 C3.44444444 35.55555556 3.44444444 35.55555556 2 37 C-0.13353174 37.10003289 -2.27037542 37.13081048 -4.40625 37.1328125 C-5.70691406 37.13410156 -7.00757813 37.13539063 -8.34765625 37.13671875 C-9.02844238 37.13462402 -9.70922852 37.1325293 -10.41064453 37.13037109 C-12.49128515 37.1250224 -14.57170989 37.1303168 -16.65234375 37.13671875 C-18.60333984 37.13478516 -18.60333984 37.13478516 -20.59375 37.1328125 C-21.79708984 37.13168457 -23.00042969 37.13055664 -24.24023438 37.12939453 C-27 37 -27 37 -28 36 C-27.6875 32.5 -27.6875 32.5 -27 29 C-26.34 28.67 -25.68 28.34 -25 28 C-25.33 30.31 -25.66 32.62 -26 35 C-16.76 35 -7.52 35 2 35 C0.46687233 30.68391204 0.46687233 30.68391204 -2 27 C-2.08748207 25.07332493 -2.10697334 23.14348139 -2.09765625 21.21484375 C-2.09443359 20.04501953 -2.09121094 18.87519531 -2.08789062 17.66992188 C-2.07951172 16.43822266 -2.07113281 15.20652344 -2.0625 13.9375 C-2.05798828 12.70193359 -2.05347656 11.46636719 -2.04882812 10.19335938 C-2.03699608 7.12885883 -2.02051173 4.06445279 -2 1 C-1.34 0.67 -0.68 0.34 0 0 Z " fill="#1D8EA1" transform="translate(129,244)"/>
<path d="M0 0 C2.0625 2.25 2.0625 2.25 4 5 C3.81190541 7.25713514 3.60454441 8.39545559 2 10 C0.31198015 10.09353163 -1.37995207 10.11744791 -3.07055664 10.11352539 C-4.15160172 10.11344986 -5.23264679 10.11337433 -6.34645081 10.11329651 C-8.110485 10.10555458 -8.110485 10.10555458 -9.91015625 10.09765625 C-11.10732773 10.0962413 -12.30449921 10.09482635 -13.53794861 10.09336853 C-17.37949066 10.08774979 -21.22097543 10.07519411 -25.0625 10.0625 C-27.65950437 10.05748741 -30.25650965 10.05292409 -32.85351562 10.04882812 C-39.23569679 10.03777427 -45.6178443 10.02101792 -52 10 C-52 9.01 -52 8.02 -52 7 C-34.51 7 -17.02 7 1 7 C1.33 6.01 1.66 5.02 2 4 C1.34 4 0.68 4 0 4 C0 2.68 0 1.36 0 0 Z " fill="#1C8EA4" transform="translate(306,271)"/>
<path d="M0 0 C2.375 -0.1875 2.375 -0.1875 5 0 C7.06880642 3.10320962 7.25815578 3.84939478 7.31884766 7.37963867 C7.33871735 8.26032516 7.35858704 9.14101166 7.37905884 10.04838562 C7.39061005 10.99534805 7.40216125 11.94231049 7.4140625 12.91796875 C7.43342865 13.89034988 7.4527948 14.86273102 7.4727478 15.86457825 C7.5325555 18.97212944 7.5789339 22.07971765 7.625 25.1875 C7.66317867 27.293636 7.70223033 29.39975637 7.7421875 31.50585938 C7.83825811 36.67044605 7.92228491 41.83510582 8 47 C5.35171941 44.44640995 4.77550123 42.42551261 4.65942383 38.87402344 C4.65989699 37.2023987 4.67673889 35.53072531 4.70703125 33.859375 C4.71127609 32.97719299 4.71552094 32.09501099 4.71989441 31.18609619 C4.73666162 28.37375117 4.77431002 25.56212774 4.8125 22.75 C4.82754938 20.8411562 4.84123734 18.93230114 4.85351562 17.0234375 C4.88655873 12.34868111 4.93832745 7.67446282 5 3 C2.03 2.505 2.03 2.505 -1 2 C-0.67 1.34 -0.34 0.68 0 0 Z " fill="#208FA3" transform="translate(298,224)"/>
<path d="M0 0 C-2.64 0.66 -5.28 1.32 -8 2 C-8 3.32 -8 4.64 -8 6 C-6.68 6 -5.36 6 -4 6 C-3.23589479 9.39749861 -2.87183506 12.53950547 -2.8671875 16.01953125 C-2.86589844 16.95990234 -2.86460937 17.90027344 -2.86328125 18.86914062 C-2.86714844 19.84044922 -2.87101562 20.81175781 -2.875 21.8125 C-2.87113281 22.77220703 -2.86726563 23.73191406 -2.86328125 24.72070312 C-2.87081744 30.24096051 -3.18577215 35.53950374 -4 41 C-5.98 41.495 -5.98 41.495 -8 42 C-7.67773438 41.09378906 -7.35546875 40.18757813 -7.0234375 39.25390625 C-5.49861248 33.89003061 -5.63174062 28.47492221 -5.625 22.9375 C-5.60050781 21.87466797 -5.57601563 20.81183594 -5.55078125 19.71679688 C-5.5270956 13.39667506 -5.9539399 9.89198194 -10 5 C-10.0625 2.75 -10.0625 2.75 -9 1 C-5.31975221 -1.08878929 -4.24507101 -1.06126775 0 0 Z " fill="#2993A3" transform="translate(378,232)"/>
<path d="M0 0 C0.99 0.495 0.99 0.495 2 1 C2.5277401 4.06269684 2.83132313 7.12329536 3.14453125 10.21484375 C3.42683594 11.13394531 3.70914062 12.05304688 4 13 C6.45003341 14.31777442 6.45003341 14.31777442 9 15 C10 16.9375 10 16.9375 10 19 C8.8125 20.75 8.8125 20.75 7 22 C5.68 22 4.36 22 3 22 C3 32.56 3 43.12 3 54 C2.67 54 2.34 54 2 54 C1.87640057 49.35532361 1.78566601 44.71160374 1.7253418 40.06567383 C1.7001967 38.48542611 1.66607526 36.90529471 1.62280273 35.32543945 C1.56214292 33.05390768 1.53379322 30.78391256 1.51171875 28.51171875 C1.48591232 27.80536789 1.4601059 27.09901703 1.43351746 26.3712616 C1.43237305 24.36987305 1.43237305 24.36987305 2 21 C4.53051758 19.15551758 4.53051758 19.15551758 7 18 C7 17.34 7 16.68 7 16 C5.68 16 4.36 16 3 16 C3 15.34 3 14.68 3 14 C2.34 14 1.68 14 1 14 C0.67 9.38 0.34 4.76 0 0 Z " fill="#228A9E" transform="translate(458,211)"/>
<path d="M0 0 C2.24973447 -0.054138 4.49984383 -0.09285491 6.75 -0.125 C8.00296875 -0.14820313 9.2559375 -0.17140625 10.546875 -0.1953125 C13.72820492 -0.01537302 15.36521896 0.31001418 18 2 C18.33 1.34 18.66 0.68 19 0 C19 1.65 19 3.3 19 5 C20.98 4.67 22.96 4.34 25 4 C24.773125 5.093125 24.54625 6.18625 24.3125 7.3125 C23.65851045 10.81681021 23.65851045 10.81681021 25.0625 12.8125 C27.59101963 14.36223784 30.15992052 15.1795326 33 16 C33 16.33 33 16.66 33 17 C29.19840576 17 27.02720333 16.92947785 24.15234375 14.328125 C22.38040414 12.25631868 20.67115394 10.1538416 19 8 C16.06145584 4.36548485 14.1211245 2.71375993 9.5625 1.9375 C4.80772416 1.61945479 2.57443477 2.97547827 -1 6 C-0.67 4.02 -0.34 2.04 0 0 Z " fill="#198FA7" transform="translate(64,218)"/>
<path d="M0 0 C3.918897 4.28629359 3.918897 4.28629359 4.3125 7.75 C4 10 4 10 3 11 C1.24314326 11.09949077 -0.51767333 11.1308026 -2.27734375 11.1328125 C-3.88319336 11.13474609 -3.88319336 11.13474609 -5.52148438 11.13671875 C-6.64876953 11.13285156 -7.77605469 11.12898438 -8.9375 11.125 C-10.06091797 11.12886719 -11.18433594 11.13273437 -12.34179688 11.13671875 C-13.41365234 11.13542969 -14.48550781 11.13414062 -15.58984375 11.1328125 C-17.07278931 11.13112061 -17.07278931 11.13112061 -18.58569336 11.12939453 C-21 11 -21 11 -23 10 C-23.625 6.9375 -23.625 6.9375 -24 4 C-23.34 4 -22.68 4 -22 4 C-22 5.65 -22 7.3 -22 9 C-14.41 8.67 -6.82 8.34 1 8 C0.37158027 4.0285831 0.37158027 4.0285831 -2 2 C-1.34 1.34 -0.68 0.68 0 0 Z " fill="#1D8DA1" transform="translate(213,270)"/>
<path d="M0 0 C3.125 1.5 3.125 1.5 5 3 C4.67 3.66 4.34 4.32 4 5 C2.35 4.34 0.7 3.68 -1 3 C-1.33 3.66 -1.66 4.32 -2 5 C-2.66 5 -3.32 5 -4 5 C-4.33 5.66 -4.66 6.32 -5 7 C-4.67 5.02 -4.34 3.04 -4 1 C-4.66 1.66 -5.32 2.32 -6 3 C-8.1385485 5.1385485 -9.13275314 5.42655063 -12 6 C-12 5.34 -12 4.68 -12 4 C-13.65 4.33 -15.3 4.66 -17 5 C-17.33 6.32 -17.66 7.64 -18 9 C-18.99 8.67 -19.98 8.34 -21 8 C-14.73402764 1.18114773 -9.17574086 -1.19086154 0 0 Z " fill="#1491A5" transform="translate(150,224)"/>
<path d="M0 0 C0.66 0.33 1.32 0.66 2 1 C2 2.52097602 1.97458595 4.04197618 1.9375 5.5625 C1.71868512 7.94826827 1.71868512 7.94826827 3 9 C3.12553427 11.35224592 3.18859672 13.67360743 3.203125 16.02734375 C3.20882507 16.73145889 3.21452515 17.43557404 3.22039795 18.161026 C3.22985963 19.65315238 3.23638656 21.14529976 3.24023438 22.63745117 C3.24994559 24.9246855 3.28095825 27.21102349 3.3125 29.49804688 C3.31902925 30.94530714 3.32428003 32.39257386 3.328125 33.83984375 C3.3404718 34.52634506 3.3528186 35.21284637 3.36553955 35.92015076 C3.35644531 37.85131836 3.35644531 37.85131836 3 41 C0 43 0 43 -4 43 C-3.67 41.68 -3.34 40.36 -3 39 C-2.34 39.66 -1.68 40.32 -1 41 C2.24517358 35.66512519 1.32819456 29.47990702 1.3125 23.4375 C1.32861328 22.19291016 1.34472656 20.94832031 1.36132812 19.66601562 C1.36197266 18.47556641 1.36261719 17.28511719 1.36328125 16.05859375 C1.36626221 14.96861084 1.36924316 13.87862793 1.37231445 12.75561523 C0.95070303 9.63513775 0.31693522 8.98362305 -2 7 C-2.3125 4.4375 -2.3125 4.4375 -2 2 C-1.34 1.34 -0.68 0.68 0 0 Z " fill="#2093A9" transform="translate(280,232)"/>
<path d="M0 0 C2.33554916 1.86661824 4.06288618 3.69640519 6 6 C5.67 6.66 5.34 7.32 5 8 C0.125 5.375 0.125 5.375 -1 2 C-4.3 1.34 -7.6 0.68 -11 0 C-11.33 -0.99 -11.66 -1.98 -12 -3 C-14.1462026 -2.85970581 -16.29196218 -2.71261836 -18.4375 -2.5625 C-19.63246094 -2.48128906 -20.82742187 -2.40007812 -22.05859375 -2.31640625 C-24.88570244 -2.32343886 -24.88570244 -2.32343886 -26 -1 C-27.66617115 -0.95936168 -29.33388095 -0.957279 -31 -1 C-31 -1.66 -31 -2.32 -31 -3 C-21.3609169 -6.03224353 -8.73482429 -4.92733678 0 0 Z " fill="#1B90A4" transform="translate(203,228)"/>
<path d="M0 0 C0.33 0 0.66 0 1 0 C1.0093457 0.57854736 1.01869141 1.15709473 1.02832031 1.75317383 C1.19267773 17.33560435 1.19267773 17.33560435 6 32 C6.33 32.66 6.66 33.32 7 34 C5.68 33.67 4.36 33.34 3 33 C3 31.68 3 30.36 3 29 C2.34 29 1.68 29 1 29 C-1.03213757 23.12848788 -1.27294729 17.87118534 -1.1875 11.6875 C-1.18685547 10.78193359 -1.18621094 9.87636719 -1.18554688 8.94335938 C-1.14083759 2.28167517 -1.14083759 2.28167517 0 0 Z " fill="#1C8CA2" transform="translate(58,236)"/>
<path d="M0 0 C2.09350689 3.4019487 2.17942163 6.05272412 2 10 C1.67 9.01 1.34 8.02 1 7 C0.34 7 -0.32 7 -1 7 C-1 6.34 -1 5.68 -1 5 C-1.66 5 -2.32 5 -3 5 C-3.33 5.66 -3.66 6.32 -4 7 C-4.33 6.34 -4.66 5.68 -5 5 C-5.515625 5.33 -6.03125 5.66 -6.5625 6 C-9.78026512 7.32010877 -12.5570528 7.13242105 -16 7 C-13.58175467 4.58175467 -11.0609509 3.49924126 -8 2 C-4.77208445 -0.1519437 -3.71599191 -0.20086443 0 0 Z " fill="#1293AB" transform="translate(394,224)"/>
<path d="M0 0 C20.3840005 -0.67529818 20.3840005 -0.67529818 26.6484375 4.3125 C28.0625 5.6875 28.0625 5.6875 30 8 C27.61435923 7.42415568 25.33317216 6.77772405 23 6 C21.33385392 5.95834635 19.66614608 5.95834635 18 6 C17.01 6 16.02 6 15 6 C15 4.68 15 3.36 15 2 C10.05 1.67 5.1 1.34 0 1 C0 0.67 0 0.34 0 0 Z " fill="#1492AA" transform="translate(330,224)"/>
<path d="M0 0 C0 0.33 0 0.66 0 1 C-0.59167969 1.02578125 -1.18335937 1.0515625 -1.79296875 1.078125 C-7.25303885 1.47003868 -9.7653904 2.37033463 -14 6 C-15.34262065 5.70630173 -16.67696283 5.3721042 -18 5 C-18.825 5.515625 -19.65 6.03125 -20.5 6.5625 C-21.7375 7.2740625 -21.7375 7.2740625 -23 8 C-25.15625 7.08984375 -25.15625 7.08984375 -27 6 C-17.73567966 1.03697125 -10.52531125 -0.34826398 0 0 Z " fill="#1991A6" transform="translate(75,210)"/>
<path d="M0 0 C2.19490305 1.84371856 2.27010214 3.53472034 2.5625 6.3125 C1.9025 6.3125 1.2425 6.3125 0.5625 6.3125 C-0.0975 5.3225 -0.7575 4.3325 -1.4375 3.3125 C-2.4275 3.8075 -2.4275 3.8075 -3.4375 4.3125 C-3.4375 3.3225 -3.4375 2.3325 -3.4375 1.3125 C-6.0775 1.3125 -8.7175 1.3125 -11.4375 1.3125 C-11.4375 1.9725 -11.4375 2.6325 -11.4375 3.3125 C-12.406875 3.580625 -13.37625 3.84875 -14.375 4.125 C-15.385625 4.516875 -16.39625 4.90875 -17.4375 5.3125 C-17.7675 6.3025 -18.0975 7.2925 -18.4375 8.3125 C-20.5 9 -20.5 9 -22.4375 9.3125 C-20.94064027 4.82192081 -17.33454176 2.6472533 -13.4375 0.3125 C-8.96292916 -1.17902361 -4.51999285 -1.27486978 0 0 Z " fill="#1C8DA1" transform="translate(302.4375,201.6875)"/>
<path d="M0 0 C2.45233288 3.73290261 2.17346789 7.32106265 1.9765625 11.609375 C1.95153656 12.33618469 1.92651062 13.06299438 1.90072632 13.81182861 C1.81878887 16.12504558 1.72210045 18.43737481 1.625 20.75 C1.56673343 22.32157874 1.50943074 23.89319354 1.453125 25.46484375 C1.31324976 29.31040311 1.16014585 33.15523361 1 37 C0.67 37 0.34 37 0 37 C0 25.45 0 13.9 0 2 C-3.0745356 2.7763932 -3.0745356 2.7763932 -5 5 C-6.32 4.34 -7.64 3.68 -9 3 C-5.92807025 0.26939578 -4.09590633 -0.34132553 0 0 Z " fill="#158FA5" transform="translate(273,201)"/>
<path d="M0 0 C0.66 0 1.32 0 2 0 C2.33 0.33 2.66 0.66 3 1 C3.66 0.67 4.32 0.34 5 0 C7 2 7 2 7 6 C12.61 6 18.22 6 24 6 C19.31583599 9.12277601 14.48365694 8.5809559 9 8 C5.29402807 6.76467602 2.70858726 5.1090931 0.5625 1.75 C0.376875 1.1725 0.19125 0.595 0 0 Z " fill="#208D9E" transform="translate(220,273)"/>
<path d="M0 0 C-0.556875 0.4125 -1.11375 0.825 -1.6875 1.25 C-4.16195956 3.12256399 -6.5835229 5.05339344 -9 7 C-8.505 7.37125 -8.01 7.7425 -7.5 8.125 C-5.40244486 10.74694393 -5.78256165 12.73842472 -6 16 C-11.63076923 7.55384615 -11.63076923 7.55384615 -12 3 C-9.84267191 0.84267191 -8.88177557 0.51705175 -6 -0.1875 C-5.29875 -0.36667969 -4.5975 -0.54585937 -3.875 -0.73046875 C-2 -1 -2 -1 0 0 Z " fill="#2390A2" transform="translate(259,208)"/>
<path d="M0 0 C2 3.375 2 3.375 3 7 C2.67 7.99 2.34 8.98 2 10 C-1 4.25 -1 4.25 -1 2 C-2.5159375 2.2784375 -2.5159375 2.2784375 -4.0625 2.5625 C-8.00986901 3.00109656 -11.13064919 2.85125718 -15 2 C-15.33 1.34 -15.66 0.68 -16 0 C-5.0456045 -1.61459344 -5.0456045 -1.61459344 0 0 Z " fill="#1890A6" transform="translate(92,211)"/>
<path d="M0 0 C1.65 1.32 3.3 2.64 5 4 C4.67 4.99 4.34 5.98 4 7 C4.66 7.33 5.32 7.66 6 8 C5.90651593 11.95141222 5.80043512 15.9022637 5.68261719 19.85302734 C5.62545964 21.85886971 5.57831404 23.86498918 5.53125 25.87109375 C5.49257812 27.12792969 5.45390625 28.38476562 5.4140625 29.6796875 C5.3826416 30.84226074 5.3512207 32.00483398 5.31884766 33.20263672 C5 36 5 36 3 38 C3.01571045 37.1121582 3.0314209 36.22431641 3.04760742 35.30957031 C3.09881686 32.00710179 3.13638856 28.7050568 3.16479492 25.40234375 C3.17985681 23.97454154 3.20031062 22.5467854 3.22631836 21.11914062 C3.26281842 19.06368627 3.27975166 17.00884495 3.29296875 14.953125 C3.31653442 13.09929199 3.31653442 13.09929199 3.34057617 11.20800781 C2.96846171 7.70292968 2.16464685 6.65221848 0 4 C0 2.68 0 1.36 0 0 Z " fill="#2D889D" transform="translate(101,234)"/>
<path d="M0 0 C3.5 0.3125 3.5 0.3125 7 1 C7.33 1.66 7.66 2.32 8 3 C6.35 3 4.7 3 3 3 C-0.21314861 9.08052532 -0.36875119 14.13825664 -0.1875 20.9375 C-0.17396484 21.90751953 -0.16042969 22.87753906 -0.14648438 23.87695312 C-0.11138677 26.25189129 -0.06222275 28.62564378 0 31 C-2.23413013 27.64880481 -2.23847762 26.5822245 -2.1953125 22.67578125 C-2.18886719 21.64775391 -2.18242187 20.61972656 -2.17578125 19.56054688 C-2.15902344 18.48869141 -2.14226562 17.41683594 -2.125 16.3125 C-2.11597656 15.22904297 -2.10695312 14.14558594 -2.09765625 13.02929688 C-2.0740734 10.3526429 -2.04116126 7.67643203 -2 5 C-1.34 5 -0.68 5 0 5 C-0.2784375 4.0409375 -0.2784375 4.0409375 -0.5625 3.0625 C-0.7790625 2.0415625 -0.7790625 2.0415625 -1 1 C-0.67 0.67 -0.34 0.34 0 0 Z " fill="#1D90A4" transform="translate(241,230)"/>
<path d="M0 0 C1.32 0 2.64 0 4 0 C3.814375 0.5775 3.62875 1.155 3.4375 1.75 C2.95976454 4.20692525 3.24270636 5.64397534 4 8 C4.66 8 5.32 8 6 8 C4.95125002 10.62187494 4.35068687 11.79371361 1.875 13.25 C1.25625 13.4975 0.6375 13.745 0 14 C0.2784375 13.0409375 0.2784375 13.0409375 0.5625 12.0625 C0.706875 11.381875 0.85125 10.70125 1 10 C0.67 9.67 0.34 9.34 0 9 C-0.07179964 7.48071962 -0.08392007 5.95832518 -0.0625 4.4375 C-0.05347656 3.61121094 -0.04445312 2.78492188 -0.03515625 1.93359375 C-0.02355469 1.29550781 -0.01195312 0.65742188 0 0 Z " fill="#1092A9" transform="translate(244,265)"/>
<path d="M0 0 C4.10748448 4.10748448 4.12764105 9.40101915 4.1953125 14.93359375 C4.18213283 17.10164913 4.15845031 19.26966262 4.125 21.4375 C4.11597656 22.55060547 4.10695313 23.66371094 4.09765625 24.81054688 C4.0742224 27.54059023 4.041414 30.2701801 4 33 C3.67 33 3.34 33 3 33 C2.97494385 32.40050537 2.9498877 31.80101074 2.92407227 31.18334961 C2.80714227 28.43456676 2.68486053 25.68604625 2.5625 22.9375 C2.52318359 21.99455078 2.48386719 21.05160156 2.44335938 20.08007812 C2.11734739 12.49477097 2.11734739 12.49477097 1 5 C0.34 4.67 -0.32 4.34 -1 4 C-0.67 2.68 -0.34 1.36 0 0 Z " fill="#2090A5" transform="translate(362,235)"/>
<path d="M0 0 C0.99 0.33 1.98 0.66 3 1 C2.83846436 1.55703613 2.67692871 2.11407227 2.51049805 2.68798828 C1.55426101 7.01872226 1.81537964 11.45763598 1.8125 15.875 C1.80025391 16.85597656 1.78800781 17.83695312 1.77539062 18.84765625 C1.76502784 23.96687218 1.94650613 28.21121982 4 33 C2.0402832 31.91259766 2.0402832 31.91259766 0 30 C-0.56176758 27.01318359 -0.56176758 27.01318359 -0.64453125 23.3984375 C-0.68126953 22.10421875 -0.71800781 20.81 -0.75585938 19.4765625 C-0.76512451 18.80399414 -0.77438965 18.13142578 -0.78393555 17.43847656 C-0.81250368 15.37473411 -0.86756236 13.31304067 -0.92773438 11.25 C-1.09602397 4.07441798 -1.09602397 4.07441798 -1 1 C-0.67 0.67 -0.34 0.34 0 0 Z " fill="#218EA4" transform="translate(395,242)"/>
<path d="M0 0 C0.33 0 0.66 0 1 0 C1.02934711 3.49998201 1.04691445 6.99993179 1.0625 10.5 C1.07087891 11.48226562 1.07925781 12.46453125 1.08789062 13.4765625 C1.10659124 19.08674757 0.838879 24.45150899 0 30 C-1.32 30.33 -2.64 30.66 -4 31 C-3.79141357 30.40719238 -3.58282715 29.81438477 -3.36791992 29.20361328 C-1.22501156 22.68800497 -0.48047047 16.70899869 -0.3125 9.875 C-0.27833984 8.91851562 -0.24417969 7.96203125 -0.20898438 6.9765625 C-0.12759526 4.65115927 -0.05810388 2.32608124 0 0 Z " fill="#0E91A8" transform="translate(374,243)"/>
<path d="M0 0 C0.61875 0.495 1.2375 0.99 1.875 1.5 C-0.61592811 2.74546405 -1.53580733 2.2767578 -4.125 1.5 C-4.125 0.84 -4.125 0.18 -4.125 -0.5 C-5.32125 0.015625 -6.5175 0.53125 -7.75 1.0625 C-11.56212261 2.51409117 -14.12378527 2.60033405 -18.125 1.5 C-13.55334281 -3.07165719 -5.52265906 -2.65087635 0 0 Z " fill="#248FA6" transform="translate(424.125,225.5)"/>
<path d="M0 0 C1.26237731 2.52475462 1.09856404 4.31200466 1.0625 7.125 C1.05347656 8.03507813 1.04445313 8.94515625 1.03515625 9.8828125 C1.02355469 10.58148438 1.01195312 11.28015625 1 12 C2.32 12 3.64 12 5 12 C5 12.66 5 13.32 5 14 C6.65 14 8.3 14 10 14 C10 14.33 10 14.66 10 15 C6.09305679 15.17758833 3.29388671 15.23513741 0 13 C-2.215015 9.6774775 -2.19410876 9.12268409 -1.6875 5.375 C-1.58824219 4.57835937 -1.48898437 3.78171875 -1.38671875 2.9609375 C-1 1 -1 1 0 0 Z " fill="#2691A2" transform="translate(279,211)"/>
<path d="M0 0 C0.66 0.33 1.32 0.66 2 1 C0.576875 2.0828125 0.576875 2.0828125 -0.875 3.1875 C-3.72424095 5.5362888 -4.76898099 7.4963305 -6 11 C-6.99 11.66 -7.98 12.32 -9 13 C-9 8.71139551 -8.86505468 8.33268814 -6.1875 5.375 C-5.40439453 4.48941406 -5.40439453 4.48941406 -4.60546875 3.5859375 C-3 2 -3 2 0 0 Z " fill="#1692AA" transform="translate(404,227)"/>
<path d="M0 0 C0.33 0.66 0.66 1.32 1 2 C-2.11734325 5.33233244 -3.99155931 6.92733572 -8.69921875 7.09765625 C-9.68535156 7.08605469 -10.67148437 7.07445312 -11.6875 7.0625 C-12.68136719 7.05347656 -13.67523438 7.04445313 -14.69921875 7.03515625 C-15.83810547 7.01775391 -15.83810547 7.01775391 -17 7 C-17 6.67 -17 6.34 -17 6 C-11.06 5.505 -11.06 5.505 -5 5 C-5 4.01 -5 3.02 -5 2 C-3.35 1.34 -1.7 0.68 0 0 Z " fill="#218C9D" transform="translate(465,274)"/>
<path d="M0 0 C2.0625 2.25 2.0625 2.25 4 5 C3.81190541 7.25713514 3.60454441 8.39545559 2 10 C-0.35313555 10.07271741 -2.70833668 10.08370868 -5.0625 10.0625 C-6.35285156 10.05347656 -7.64320313 10.04445313 -8.97265625 10.03515625 C-9.97167969 10.02355469 -10.97070312 10.01195312 -12 10 C-12 9.67 -12 9.34 -12 9 C-10.73542969 8.96132813 -10.73542969 8.96132813 -9.4453125 8.921875 C-8.34960938 8.86515625 -7.25390625 8.8084375 -6.125 8.75 C-5.03445313 8.70359375 -3.94390625 8.6571875 -2.8203125 8.609375 C0.1332065 8.31153872 0.1332065 8.31153872 1.3828125 5.953125 C1.58648437 5.30859375 1.79015625 4.6640625 2 4 C1.34 4 0.68 4 0 4 C0 2.68 0 1.36 0 0 Z " fill="#248A9E" transform="translate(306,271)"/>
<path d="M0 0 C0.33 0 0.66 0 1 0 C1.06058594 0.92683594 1.12117187 1.85367188 1.18359375 2.80859375 C1.26738281 4.00613281 1.35117188 5.20367187 1.4375 6.4375 C1.51871094 7.63246094 1.59992188 8.82742188 1.68359375 10.05859375 C1.67656114 12.88570244 1.67656114 12.88570244 3 14 C3.23287008 15.68183948 3.41264166 17.3712416 3.5625 19.0625 C3.64628906 19.98160156 3.73007813 20.90070313 3.81640625 21.84765625 C3.87699219 22.55792969 3.93757812 23.26820313 4 24 C0.41908736 20.41908736 0.0467967 15.94997306 -0.1953125 11.03515625 C-0.17210937 9.72417969 -0.14890625 8.41320312 -0.125 7.0625 C-0.11597656 6.37865234 -0.10695312 5.69480469 -0.09765625 4.99023438 C-0.07438958 3.32666713 -0.03853167 1.66328369 0 0 Z " fill="#2692A8" transform="translate(216,249)"/>
<path d="M0 0 C0.68707555 2.49064888 1 4.37886292 1 7 C4.96 7.33 8.92 7.66 13 8 C13 8.33 13 8.66 13 9 C10.68756208 9.02685412 8.3750373 9.04632841 6.0625 9.0625 C4.77472656 9.07410156 3.48695312 9.08570313 2.16015625 9.09765625 C-1 9 -1 9 -2 8 C-1.28 1.28 -1.28 1.28 0 0 Z " fill="#288C9D" transform="translate(103,272)"/>
<path d="M0 0 C0.6875 1.6875 0.6875 1.6875 1 4 C0.319375 5.051875 0.319375 5.051875 -0.375 6.125 C-2.70559635 10.24836278 -2.73725461 14.33400427 -3 19 C-3.33 19 -3.66 19 -4 19 C-4.68912276 6.0980905 -4.68912276 6.0980905 -2 2.1875 C-1.34 1.465625 -0.68 0.74375 0 0 Z " fill="#278EA4" transform="translate(313,253)"/>
<path d="M0 0 C0.66 0 1.32 0 2 0 C2.33 1.32 2.66 2.64 3 4 C1.68 4 0.36 4 -1 4 C-1.33 4.99 -1.66 5.98 -2 7 C-5.0625 8.6875 -5.0625 8.6875 -8 10 C-8 8.68 -8 7.36 -8 6 C-6.35 6 -4.7 6 -3 6 C-2.814375 5.071875 -2.814375 5.071875 -2.625 4.125 C-2 2 -2 2 0 0 Z " fill="#0F91AA" transform="translate(341,244)"/>
<path d="M0 0 C2 2 2 2 2.125 5.125 C2.08375 6.07375 2.0425 7.0225 2 8 C0.49440461 6.03617993 -0.89131683 4.21736634 -2 2 C-2.66 2 -3.32 2 -4 2 C-4.45375 2.515625 -4.9075 3.03125 -5.375 3.5625 C-5.91125 4.036875 -6.4475 4.51125 -7 5 C-9.1875 4.6875 -9.1875 4.6875 -11 4 C-4.59574468 -0.76595745 -4.59574468 -0.76595745 0 0 Z " fill="#208EA3" transform="translate(126,224)"/>
<path d="M0 0 C0.66 0 1.32 0 2 0 C2.33 0.33 2.66 0.66 3 1 C3.66 0.67 4.32 0.34 5 0 C7.35953094 2.35953094 7.49141413 3.77895617 8 7 C4.59679258 5.98823563 3.24274669 5.35156418 1.1875 2.375 C0.795625 1.59125 0.40375 0.8075 0 0 Z " fill="#1790A3" transform="translate(220,273)"/>
<path d="M0 0 C2.97 0.99 5.94 1.98 9 3 C9 3.66 9 4.32 9 5 C9.66 5 10.32 5 11 5 C11 5.66 11 6.32 11 7 C6.00724943 5.72278474 3.42388092 3.82669043 0 0 Z " fill="#1A8FA0" transform="translate(45,272)"/>
<path d="M0 0 C0 3 0 3 -2.375 5.5625 C-3.24125 6.366875 -4.1075 7.17125 -5 8 C-5.66 8.66 -6.32 9.32 -7 10 C-7 9.34 -7 8.68 -7 8 C-8.32 7.67 -9.64 7.34 -11 7 C-10.113125 6.5875 -9.22625 6.175 -8.3125 5.75 C-5.18687634 4.09872712 -2.68094386 2.28668741 0 0 Z " fill="#218EA1" transform="translate(450,216)"/>
<path d="M0 0 C1.98 0 3.96 0 6 0 C2.98112756 3.48331435 0.43090471 4.79157144 -4 6 C-4 4.68 -4 3.36 -4 2 C-2.68 2 -1.36 2 0 2 C0 1.34 0 0.68 0 0 Z " fill="#1B8DA2" transform="translate(295,219)"/>
<path d="M0 0 C1.32 0.33 2.64 0.66 4 1 C2.4375 2.5625 2.4375 2.5625 0 4 C-3.6875 3.8125 -3.6875 3.8125 -7 3 C-7.33 2.34 -7.66 1.68 -8 1 C-5.36 1.33 -2.72 1.66 0 2 C0 1.34 0 0.68 0 0 Z " fill="#208C9E" transform="translate(167,241)"/>
<path d="M0 0 C0.79921875 0.01804688 1.5984375 0.03609375 2.421875 0.0546875 C3.02515625 0.07789063 3.6284375 0.10109375 4.25 0.125 C4.25 0.455 4.25 0.785 4.25 1.125 C2.991875 1.41375 1.73375 1.7025 0.4375 2 C-2.6039399 2.69803539 -4.05669878 3.32946585 -6.75 5.125 C-6.75 4.465 -6.75 3.805 -6.75 3.125 C-7.41 2.795 -8.07 2.465 -8.75 2.125 C-5.68753253 0.34090198 -3.52920727 -0.10380021 0 0 Z " fill="#1590A1" transform="translate(335.75,230.875)"/>
<path d="M0 0 C1.65 0 3.3 0 5 0 C5 1.32 5 2.64 5 4 C3.35 4 1.7 4 0 4 C0 2.68 0 1.36 0 0 Z " fill="#0296B2" transform="translate(317,239)"/>
<path d="M0 0 C1.32 0.66 2.64 1.32 4 2 C4.125 4.875 4.125 4.875 4 8 C3.34 8.66 2.68 9.32 2 10 C1.01 9.34 0.02 8.68 -1 8 C-0.01 7.01 0.98 6.02 2 5 C1.34 3.35 0.68 1.7 0 0 Z " fill="#1991A1" transform="translate(341,232)"/>
<path d="M0 0 C1.65 1.32 3.3 2.64 5 4 C4.67 4.99 4.34 5.98 4 7 C4.66 7.33 5.32 7.66 6 8 C5.01 8 4.02 8 3 8 C0.19744677 5.0936485 0 4.21174952 0 0 Z " fill="#1C8FA8" transform="translate(101,234)"/>
<path d="M0 0 C0.33 1.32 0.66 2.64 1 4 C-1.95664519 5.4783226 -4.74229737 5.06032783 -8 5 C-5.59078295 2.59078295 -3.05665491 1.46187844 0 0 Z " fill="#1E90A5" transform="translate(386,226)"/>
<path d="M0 0 C0.66 0 1.32 0 2 0 C1.67 1.65 1.34 3.3 1 5 C-0.98 5.33 -2.96 5.66 -5 6 C-4.67 4.68 -4.34 3.36 -4 2 C-3.34 2.66 -2.68 3.32 -2 4 C-1.34 2.68 -0.68 1.36 0 0 Z " fill="#1E8EA0" transform="translate(281,269)"/>
<path d="M0 0 C0.33 0 0.66 0 1 0 C1 2.97 1 5.94 1 9 C-0.32 9.33 -1.64 9.66 -3 10 C-2.01 6.7 -1.02 3.4 0 0 Z " fill="#1993A1" transform="translate(373,264)"/>
<path d="M0 0 C-4.30769231 3.93846154 -4.30769231 3.93846154 -7.8125 4.25 C-8.534375 4.1675 -9.25625 4.085 -10 4 C-7.39928297 0.98864344 -3.94054294 -1.97027147 0 0 Z " fill="#1E8FA6" transform="translate(327,246)"/>
<path d="M0 0 C4.83256305 0.41421969 6.82679218 2.46413986 10 6 C6.33118845 5.29445932 3.29549466 3.72264494 0 2 C0 1.34 0 0.68 0 0 Z " fill="#2390A5" transform="translate(350,226)"/>
<path d="M0 0 C0.33 0 0.66 0 1 0 C1 1.65 1 3.3 1 5 C-1.64 5.33 -4.28 5.66 -7 6 C-7.33 5.01 -7.66 4.02 -8 3 C-6.865625 2.87625 -5.73125 2.7525 -4.5625 2.625 C-3.386875 2.41875 -2.21125 2.2125 -1 2 C-0.67 1.34 -0.34 0.68 0 0 Z " fill="#1A90A3" transform="translate(188,263)"/>
<path d="M0 0 C3.63 0 7.26 0 11 0 C11.33 0.66 11.66 1.32 12 2 C10.14375 1.9690625 10.14375 1.9690625 8.25 1.9375 C5.3359175 1.93233319 2.79046673 2.06984442 0 3 C0 2.01 0 1.02 0 0 Z " fill="#1C8CA4" transform="translate(177,231)"/>
<path d="M0 0 C-0.928125 0.680625 -0.928125 0.680625 -1.875 1.375 C-4.05919833 2.97108919 -4.05919833 2.97108919 -6 5 C-8.125 4.625 -8.125 4.625 -10 4 C-4.4 -2.2 -4.4 -2.2 0 0 Z " fill="#1192A6" transform="translate(259,208)"/>
<path d="M0 0 C2.6875 -0.3125 2.6875 -0.3125 5 0 C2.64722731 2.72426311 0.37503669 3.8141763 -3 5 C-1.8125 2.5 -1.8125 2.5 0 0 Z " fill="#1F91AB" transform="translate(183,273)"/>
<path d="M0 0 C3.93846154 4.30769231 3.93846154 4.30769231 4.25 7.8125 C4.1675 8.534375 4.085 9.25625 4 10 C3.67 8.68 3.34 7.36 3 6 C2.34 6 1.68 6 1 6 C-0.625 4 -0.625 4 -2 2 C-1.34 1.34 -0.68 0.68 0 0 Z " fill="#208B9D" transform="translate(213,270)"/>
<path d="M0 0 C1.21816406 0.03480469 1.21816406 0.03480469 2.4609375 0.0703125 C3.68683594 0.09738281 3.68683594 0.09738281 4.9375 0.125 C5.87722656 0.15980469 5.87722656 0.15980469 6.8359375 0.1953125 C5.2734375 1.7578125 5.2734375 1.7578125 2.8359375 3.1953125 C-0.9140625 2.8828125 -0.9140625 2.8828125 -4.1640625 2.1953125 C-2.1640625 0.1953125 -2.1640625 0.1953125 0 0 Z " fill="#1390A8" transform="translate(410.1640625,224.8046875)"/>
<path d="M0 0 C0.66 0 1.32 0 2 0 C2 0.66 2 1.32 2 2 C3.65 1.67 5.3 1.34 7 1 C6.34 2.32 5.68 3.64 5 5 C3.0625 4.1875 3.0625 4.1875 1 3 C0.67 2.01 0.34 1.02 0 0 Z " fill="#1690A4" transform="translate(311,274)"/>
<path d="M0 0 C-0.66 0 -1.32 0 -2 0 C-2.33 0.99 -2.66 1.98 -3 3 C-4.98 3 -6.96 3 -9 3 C-5.83583464 -0.30799106 -4.50236011 -1.35070803 0 0 Z " fill="#1990A0" transform="translate(237,226)"/>
</svg>
